<svg height="81" width="501" xmlns="http://www.w3.org/2000/svg">
  <path d="m494.438 11.251v-6.527c0-.707-.571-1.279-1.274-1.279v-1.28c3.638 0 5.989 2.36 5.989 6.014v6.527c0 .707.571 1.28 1.275 1.28v1.279c-3.639 0-5.99-2.36-5.99-6.014zm-1.019 6.014c-3.639 0-5.99-2.36-5.99-6.014v-6.527c0-.707-.571-1.279-1.274-1.279v-1.28c3.638 0 5.989 2.36 5.989 6.014v6.527c0 .707.571 1.28 1.275 1.28zm-26.762 43.019v-1.28c6.968 0 11.469-4.52 11.469-11.517v-42.763c0-.857-.418-1.278-1.27-1.279h-14.023v-1.28h15.293l1.648-1.654c.497-.5 1.304-.5 1.802 0l1.384 1.389c.169.17.264.4.264.64v.905 40.202c0 10.623-5.989 16.637-16.567 16.637zm-5.637 12.174c-.106.12-.106.518-.106 1.17v3.778c0 1.889-1.272 2.913-3.723 2.913-2.238 0-3.522-1.038-3.522-2.806v-3.924c0-.985-.12-1.357-.848-1.357-.106 0-.239 0-.384.013v-1.13h5.032v1.13c-.171-.013-.317-.013-.45-.013-.874 0-.901.319-.901 1.316v3.578c0 1.278.372 1.863 1.524 1.863 1.338 0 1.828-.518 1.828-1.756v-3.618c0-1.064-.079-1.383-.94-1.383-.106 0-.225 0-.345.013v-1.13h3.961v1.13c-.623 0-.994.053-1.126.213zm-18.822-12.174v-1.28c6.968 0 11.469-4.52 11.469-11.517v-36.364c0-.858-.419-1.279-1.274-1.279h-14.018v-1.28h15.292l1.648-1.654c.498-.5 1.304-.5 1.802 0l1.384 1.389c.169.17.264.4.264.64v34.708c0 10.623-5.989 16.637-16.567 16.637zm11.469-56.839h-15.292v-1.28h15.293l1.647-1.654c.498-.5 1.304-.5 1.802 0l1.384 1.39c.169.169.264.399.264.639v.905zm-21.432 75.531c1.218 0 2.027-.865 2.119-2.395h1.405c-.067 2.462-1.405 3.724-3.961 3.724-2.901 0-4.729-1.875-4.729-4.734 0-1.437.438-2.554 1.351-3.458.888-.879 1.921-1.264 3.272-1.264.967 0 1.802.279 2.583.864l.265-.705h1.219v3.631h-1.299c-.106-1.582-.954-2.487-2.238-2.487-1.404 0-2.265 1.211-2.265 3.405 0 2.208.834 3.419 2.278 3.419zm-14.496-18.692v-1.28c6.968 0 11.469-4.52 11.469-11.517v-42.762c0-.858-.417-1.278-1.269-1.28h-7.651v12.797c0 6.22-4.002 10.238-10.195 10.238v-1.28c3.035 0 5.097-2.071 5.097-5.119v-15.356c0-.859-.419-1.28-1.274-1.28v-1.28h1.274 5.098 8.92l1.648-1.654c.498-.5 1.305-.5 1.802 0l1.384 1.39c.169.169.264.399.264.639v.905 40.202c0 10.623-5.989 16.637-16.567 16.637zm-3.709-9.854c0 5.986-3.851 9.854-9.813 9.854h-7.582v-1.28c.855 0 1.274-.421 1.274-1.28v-52.999c0-.859-.419-1.28-1.274-1.28v-1.28h4.715c.704 0 1.274.573 1.274 1.28v55.559h1.593c3.036 0 5.098-2.071 5.098-5.119v-14.717c0-.706-.571-1.279-1.274-1.279v-1.28c3.638 0 5.989 2.36 5.989 6.015zm-13.948 20.419c3.126 0 4.981 1.809 4.981 4.735s-1.855 4.721-4.981 4.721-4.994-1.795-4.994-4.721 1.868-4.735 4.994-4.735zm0 8.233c1.497 0 2.106-1.131 2.106-3.498 0-2.368-.609-3.499-2.106-3.499s-2.106 1.131-2.106 3.499c0 2.367.609 3.498 2.106 3.498zm-21.862-18.798v-1.28c7.045 0 11.597-4.571 11.597-11.646v-42.633c0-.859-.419-1.28-1.274-1.28v-1.28h4.715c.704 0 1.274.573 1.274 1.28v40.458c0 10.947-5.411 16.381-16.312 16.381zm-1.033-49.033v-6.527c0-.707-.57-1.279-1.274-1.279v-1.28c3.639 0 5.99 2.36 5.99 6.014v6.527c0 .707.57 1.28 1.274 1.28v1.28c-3.639 0-5.99-2.361-5.99-6.015zm-1.019 6.015c-3.639 0-5.99-2.361-5.99-6.015v-6.527c0-.707-.57-1.279-1.274-1.279v-1.28c3.639 0 5.99 2.36 5.99 6.014v6.527c0 .707.57 1.28 1.274 1.28zm3.568 15.62v6.398c0 .707-.57 1.28-1.274 1.28h-5.098v-1.28c.855 0 1.275-.421 1.275-1.279v-8.958c0-3.048-2.063-5.119-5.098-5.119h-5.735v35.076c0 .707-.57 1.28-1.274 1.28h-5.097v-1.28c.855 0 1.274-.421 1.274-1.28v-53c0-.858-.419-1.279-1.274-1.279v-1.28h5.097c.704 0 1.274.573 1.274 1.28v19.203h5.735c6.194 0 10.195 4.018 10.195 10.238zm-21.013 39.399h-.556c-.728 0-.82.12-.82.772v5.813h.701c.954 0 1.603-.014 2.026-.427.411-.385.57-1.037.65-2.048h1.165v3.645h-8.331v-1.17h.49c.729 0 .808-.12.808-.772v-5.041c0-.652-.079-.772-.808-.772h-.49v-1.17h5.165zm-14.033-13.281c0 .707-.571 1.28-1.274 1.28h-5.098v-1.28c.855 0 1.274-.421 1.274-1.28v-24.905c-3.849 2.518-8.684 3.899-14.273 3.899v-1.279c11.096 0 19.116-8.054 19.116-19.197v-11.518c0-.858-.419-1.279-1.274-1.279v-1.28h5.097c.704 0 1.275.573 1.275 1.28v8.958c0 6.29-1.729 11.627-4.843 15.688zm-22.947-33.804h-2.167v24.846c0 6.22-4.001 10.238-10.195 10.238v-1.28c3.035 0 5.098-2.071 5.098-5.119v-40.202c0-.859-.419-1.28-1.275-1.28v-1.28h5.098c.704 0 1.274.573 1.274 1.28v11.518h2.167c3.035 0 5.097-2.071 5.097-5.12v-14.076c0-.857-.417-1.278-1.268-1.28h-17.847v-1.28h19.115l1.648-1.654c.498-.5 1.304-.5 1.802 0l1.384 1.39c.169.169.264.399.264.639v12.422c0 6.22-4.002 10.238-10.195 10.238zm-24.354 35.084h-7.583v-1.28c.855 0 1.275-.421 1.275-1.28v-52.999c0-.859-.42-1.28-1.275-1.28v-1.28h4.716c.703 0 1.274.573 1.274 1.28v55.559h1.593c3.035 0 5.097-2.071 5.097-5.119v-14.717c0-.706-.57-1.279-1.274-1.279v-1.28c3.639 0 5.99 2.36 5.99 6.015v7.806c0 5.986-3.852 9.854-9.813 9.854zm-5.908 11.363.265-.625h1.1v3.258h-1.219c-.159-1.33-1.153-2.114-2.623-2.114-.927 0-1.444.425-1.444 1.037 0 .864.981.838 2.808 1.29 1.987.492 2.941 1.371 2.941 2.913 0 1.743-1.377 2.899-3.683 2.899-1.126 0-2.211-.332-2.86-.798l-.358.652h-1.073v-3.511h1.192c.213 1.45 1.311 2.354 2.756 2.354 1.02 0 1.602-.425 1.602-1.064 0-.877-.782-.944-1.987-1.237-1.218-.293-2.158-.518-2.808-1.037-.583-.466-.9-1.118-.9-1.916 0-1.782 1.298-2.846 3.615-2.846 1.113 0 2.001.226 2.676.745zm-20.089-11.363v-1.28c7.045 0 11.596-4.571 11.596-11.646v-42.633c0-.859-.419-1.28-1.274-1.28v-1.28h4.715c.704 0 1.275.573 1.275 1.28v40.458c0 10.947-5.411 16.381-16.312 16.381zm-7.884-31.354h11.469l1.648-1.654c.498-.5 1.305-.5 1.802 0l1.384 1.389c.169.17.264.4.264.64v.905h-16.567zm-7.278 49.94h.544c.728 0 .807-.12.807-.772v-5.041c0-.652-.079-.772-.807-.772h-.544v-1.17h5.246v1.17h-.544c-.728 0-.821.12-.821.772v5.041c0 .652.093.772.821.772h.544v1.17h-5.246zm-12.075-18.586v-1.28c6.968 0 11.47-4.52 11.47-11.517v-42.762c0-.858-.418-1.278-1.27-1.28h-7.651v12.797c0 6.22-4.002 10.238-10.195 10.238v-1.28c3.035 0 5.097-2.071 5.097-5.119v-15.356c0-.859-.419-1.28-1.274-1.28v-1.28h1.274 5.098 8.921l1.647-1.654c.498-.5 1.305-.5 1.802 0l1.384 1.39c.169.169.264.399.264.639v.905 40.202c0 10.623-5.989 16.637-16.567 16.637zm-3.959-1.28v1.28c-6.193 0-10.195-4.018-10.195-10.238v-.64-10.878c0-.706-.57-1.279-1.274-1.279 0 14.708-8.292 23.035-22.939 23.035v-1.28c10.839 0 17.841-7.032 17.841-17.916v-36.363c0-.859-.419-1.28-1.274-1.28h-12.744v-1.28h17.842l1.647-1.654c.498-.5 1.305-.5 1.802 0l1.384 1.389c.169.17.264.4.264.64v.905h-3.823v32.524c3.519 0 6.372 2.865 6.372 6.398v7.039 4.479c0 3.048 2.062 5.119 5.097 5.119zm-31.034 12.669.225-.651h1.218v3.591h-1.271c-.186-1.649-.914-2.434-2.279-2.434-1.364 0-2.092 1.09-2.092 3.232 0 2.421.569 3.578 2.039 3.578 1.073 0 1.351-.333 1.351-1.197v-.625c0-.572-.039-.692-.636-.692h-.648v-1.171h4.847v1.171h-.477c-.463 0-.609.132-.609.598v3.06h-1.179l-.331-.679c-.874.572-1.788.851-2.808.851-2.702 0-4.437-1.769-4.437-4.602 0-2.912 1.854-4.854 4.49-4.854.967 0 1.802.266 2.597.824zm-6.287-11.389h-12.616v-1.28c.852 0 1.271-.419 1.274-1.273v-25.602c0-.858-.419-1.279-1.274-1.279h-1.912v14.205c0 9.724-5.482 15.229-15.165 15.229v-1.28c6.348 0 10.45-4.119 10.45-10.494v-21.499c0-.859-.419-1.28-1.274-1.28l-1.912-.001v-1.279h16.695l1.647-1.654c.498-.5 1.304-.5 1.802 0l1.384 1.389c.169.17.264.4.264.64v.905l-13.891-.001v3.84h6.627c.704 0 1.274.573 1.274 1.28v28.154h1.912c.855 0 1.274-.421 1.274-1.28v-12.797c0-.707-.57-1.28-1.274-1.28v-1.28c3.639 0 5.989 2.361 5.989 6.015v10.622c0 .707-.57 1.28-1.274 1.28zm-5.735-40.312v-1.28c.704 0 1.275-.573 1.275-1.279v-10.238c0-.859-.42-1.28-1.275-1.28h-10.322v7.678h4.333l1.647-1.654c.498-.5 1.305-.5 1.803 0l1.383 1.389c.169.17.264.4.264.64v.905h-9.43v3.839c0 .707-.571 1.28-1.275 1.28h-5.097v-1.28c.855 0 1.274-.421 1.274-1.279v-10.238c0-.859-.419-1.28-1.274-1.28v-1.28h8.411v-1.919c0-.859-.419-1.28-1.275-1.28v-1.28h5.098c.704 0 1.274.573 1.274 1.28v3.199h4.461l1.647-1.654c.498-.5 1.305-.5 1.803 0l1.383 1.389c.169.17.264.4.264.64v8.583c0 3.888-2.501 6.399-6.372 6.399zm-24.595 30.074v-1.28c.703 0 1.274-.572 1.274-1.279v-20.477c0-.706-.571-1.279-1.274-1.279v-1.28c.703 0 1.274-.573 1.274-1.279v-20.477c0-.706-.571-1.279-1.274-1.279h-1.912v57.588c0 .707-.57 1.28-1.274 1.28h-4.715v-1.28c.855 0 1.274-.421 1.274-1.28v-55.028c0-.859-.419-1.28-1.274-1.28v-1.28h12.616c.704 0 1.274.573 1.274 1.28v18.3c0 2.047-.738 3.688-2.027 4.735h.753c.704 0 1.274.573 1.274 1.28v18.3c0 3.654-2.35 6.015-5.989 6.015zm-5.485 28.824h.451v1.17h-4.901v-1.17h.372c.582 0 .807-.054.807-.32 0-.079-.04-.173-.067-.279l-.343-1.104h-2.557l-.331 1.024c-.053.16-.066.292-.066.359 0 .279.198.32.715.32h.437v1.17h-3.894v-1.17h.318c.715 0 .821-.24 1.033-.865l2.278-6.89h2.649l2.186 6.929c.198.612.357.826.913.826zm-4.94-5.68-.914 2.82h1.802zm-14.164-25.703c0 7.774-5.002 12.797-12.744 12.797v-1.28c4.553 0 7.646-3.106 7.646-7.678v-15.358h-14.018v-1.28h14.018v-7.677c0-.859-.419-1.28-1.274-1.28h-1.274v-1.28h4.205c.704 0 1.275-.573 1.275-1.28v-6.398c0-2.301.86-4.005 2.439-5.119l-10.85-.001v-1.279h9.685l1.648-1.654c.497-.5 1.304-.5 1.802 0l1.383 1.389c.169.17.264.4.264.64v.905c-.703 0-1.274.573-1.274 1.279v6.399c0 2.659-1.171 4.674-3.15 5.681.138.205.219.452.219.718v8.957h7.647l1.647-1.654c.498-.5 1.304-.5 1.802 0l1.384 1.39c.169.169.264.399.264.639v.906l-12.744-.001zm6.372-27.515v-1.28c.704 0 1.274-.573 1.274-1.279v-10.238c0-.859-.419-1.28-1.274-1.28h-20.39v12.797c0 .707-.571 1.28-1.275 1.28h-3.823-1.274v-1.28c.855 0 1.274-.421 1.274-1.279v-10.238c0-.859-.419-1.28-1.274-1.28v-1.28h5.735c.703 0 1.274-.573 1.274-1.279v-.64c0-.778-.5-1.28-1.274-1.28v-1.28h5.097c.704 0 1.274.573 1.274 1.28v.64c0 .985-.372 1.88-.979 2.559h2.254c.704 0 1.274-.573 1.274-1.279v-.64c0-.778-.5-1.28-1.274-1.28v-1.28h5.097c.704 0 1.275.573 1.275 1.28v.64c0 .985-.373 1.88-.98 2.559h2.254c.704 0 1.275-.573 1.275-1.279v-.64c0-.778-.501-1.28-1.275-1.28v-1.28h5.098c.703 0 1.274.573 1.274 1.28v.64c0 .985-.372 1.88-.979 2.559h1.616l1.648-1.654c.498-.5 1.304-.5 1.802 0l1.384 1.389c.169.17.264.4.264.64v8.583c0 3.888-2.501 6.399-6.372 6.399zm-36.716-12.797v28.794c0 .953-.041 1.884-.119 2.792 6.277 4.107 10.068 11.126 10.535 20.177.037.732-.547 1.346-1.276 1.346h-3.787-1.275v-1.28c.856 0 1.275-.421 1.275-1.28v-1.28c0-6.199-2.137-11.384-5.83-14.988-2.09 11.599-10.947 18.828-23.736 18.828v-1.28c11.382 0 19.116-7.766 19.116-19.196v-1.627c-2.865-1.43-6.219-2.212-9.94-2.212h-6.628v-1.28c2.82 0 4.716-1.903 4.716-4.735v-24.059h-6.117v-1.28h6.117v-1.919c0-.859-.419-1.28-1.275-1.28v-1.28h5.098c.704 0 1.274.573 1.274 1.28v3.199h13l1.647-1.654c.498-.499 1.305-.499 1.802 0l1.384 1.39c.169.169.264.399.264.639v.905h-4.973c-.703.002-1.272.574-1.272 1.28zm-11.852-1.28v20.22c0 3.953-1.687 6.972-4.544 8.574h1.359c3.644 0 6.973.56 9.94 1.615v-25.29c0-2.234.829-4.01 2.266-5.119zm-15.071 66.39h-.503v-1.17h4.053v1.17h-.411c-.728 0-.821.12-.821.772v6.983h-2.728l-3.643-6.637v4.695c0 .652.092.772.822.772h.503v1.17h-4.107v-1.17h.464c.729 0 .822-.12.822-.772v-5.041c0-.652-.093-.772-.822-.772h-.464v-1.17h4.252l3.404 6.225v-4.283c0-.652-.093-.772-.821-.772zm-32.469-13.282h12.112c.701-.003 1.268-.574 1.268-1.279v-16.636c0-2.234.83-4.01 2.267-5.119h-13.099v-1.28h21.665l1.648-1.654c.497-.5 1.304-.5 1.801 0l1.384 1.389c.169.17.264.4.264.64v.905h-9.558c-.703 0-1.274.573-1.274 1.28v16.636c0 2.233-.829 4.009-2.265 5.118h10.549l1.647-1.653c.498-.5 1.305-.5 1.802 0l1.384 1.389c.169.17.264.4.264.64v.905l-31.859-.001zm30.585-28.281-13.891-.001v-1.279h.008c.849-.003 1.266-.424 1.266-1.28v-15.229c0-.858-.419-1.279-1.274-1.279h-2.804v5.503c0 9.56-5.39 14.973-14.91 14.973v-1.28c6.194 0 10.195-4.018 10.195-10.238v-13.437c0-.859-.419-1.28-1.274-1.28h-2.804v12.797c0 .707-.571 1.28-1.274 1.28h-5.098v-1.28c.855 0 1.275-.421 1.275-1.279v-10.238c0-.859-.42-1.28-1.275-1.28v-1.28h14.655v-1.919c0-.859-.419-1.28-1.274-1.28v-1.28h5.098c.703 0 1.274.573 1.274 1.28v3.199h8.283l1.648-1.654c.498-.5 1.305-.5 1.802 0l1.384 1.389c.169.17.264.4.264.64v8.583c0 3.888-2.501 6.399-6.372 6.399v-1.28c.704 0 1.274-.573 1.274-1.279v-10.238c0-.859-.419-1.28-1.274-1.28h-11.597v4.479h7.519c.704 0 1.275.573 1.275 1.28v17.788h2.811c.85-.003 1.266-.424 1.266-1.28v-3.711c0-.707-.57-1.28-1.274-1.28v-1.279h1.274c3.097 0 5.098 2.009 5.098 5.119v2.431c0 .707-.571 1.28-1.274 1.28zm-29.367 40.925.265-.625h1.099v3.258h-1.219c-.159-1.33-1.152-2.114-2.623-2.114-.926 0-1.443.425-1.443 1.037 0 .864.98.838 2.808 1.29 1.987.492 2.94 1.371 2.94 2.913 0 1.743-1.377 2.899-3.682 2.899-1.126 0-2.211-.332-2.861-.798l-.358.652h-1.073v-3.511h1.193c.212 1.45 1.311 2.354 2.755 2.354 1.02 0 1.602-.425 1.602-1.064 0-.877-.781-.944-1.987-1.237-1.218-.293-2.158-.518-2.807-1.037-.583-.466-.901-1.118-.901-1.916 0-1.782 1.298-2.846 3.616-2.846 1.112 0 2 .226 2.676.745zm-24.687-12.643c6.504-1.151 10.705-6.115 10.705-12.645v-39.184c0-.859-.419-1.28-1.274-1.28v-1.28h1.274v.024l3.562-.017c.706-.004 1.281.57 1.281 1.279v36.017c0 10.434-5.158 16.526-15.548 18.366zm-4.166-16.125h-5.416v8.447c0 .707-.571 1.28-1.274 1.28h-4.716v-1.28c.856 0 1.275-.421 1.275-1.28v-7.167h-11.533v4.608c0 4.572 3.093 7.678 7.645 7.678h17.842v1.279h-.637c-1.161 0-1.912.754-1.912 1.92 0 1.06-.856 1.92-1.912 1.92h-9.557c-5.626 0-9.803-2.655-11.667-7.089-.857 4.05-4.435 7.089-8.723 7.089v-1.28c2.323 0 4.206-1.89 4.206-4.223v-31.865c0-.859-.42-1.28-1.275-1.28h-1.657v-1.28h2.932 3.44c.704 0 1.275.573 1.275 1.28v19.963h11.533v-6.142h-3.377v1.28c0 .707-.571 1.279-1.275 1.279h-3.44-1.275v-1.279c.855 0 1.275-.421 1.275-1.28v-1.28-5.631-1.279-4.351c0-.859-.42-1.28-1.275-1.28v-1.28h1.275 4.715 3.377v-3.584h-8.347v-1.279h8.347v-.64c0-.859-.419-1.28-1.275-1.28v-1.279h1.275 3.441c.703 0 1.274.573 1.274 1.279v1.92h2.995l1.647-1.654c.498-.5 1.305-.5 1.803 0l1.383 1.389c.169.17.264.4.264.64v.905h-5.097v-.001h-2.995v3.584h2.995l1.647-1.654c.498-.5 1.305-.5 1.803 0l1.383 1.389c.169.17.264.4.264.64v.905 5.631 1.279 5.631 1.28 1.28c0 .707-.57 1.279-1.274 1.279h-3.441-1.274v-1.279c.855 0 1.274-.421 1.274-1.28h-3.377v6.142h5.417l1.647-1.654c.497-.499 1.304-.499 1.802 0l1.384 1.39c.169.169.264.4.264.639v.905zm-10.131-21.243h-3.377v5.631h3.377zm0 6.91h-3.377v5.631h3.377zm8.092-5.63c0-.859-.419-1.28-1.274-1.28h-2.103v5.631h3.377zm0 11.261v-5.631h-3.377v5.631zm-20.9-18.3c0 .855.423 1.279 1.275 1.279v1.28c-3.871 0-6.372-2.511-6.372-6.398v-1.664c0-.855-.423-1.28-1.275-1.28v-1.279c3.871 0 6.372 2.511 6.372 6.398zm18.797-6.783c0 .707-.57 1.28-1.274 1.28h-5.097v-1.28c.855 0 1.274-.421 1.274-1.279v-1.92h-5.735v3.199c0 .707-.57 1.28-1.274 1.28h-5.098v-1.28c.856 0 1.275-.421 1.275-1.279v-1.92h-9.24v-1.28h9.24v-1.919c0-.859-.419-1.28-1.275-1.28v-1.28h5.098c.704 0 1.274.573 1.274 1.28v3.199h5.735v-1.919c0-.859-.419-1.28-1.274-1.28v-1.28h5.097c.704 0 1.274.573 1.274 1.28v3.199h4.142l1.648-1.654c.497-.5 1.304-.5 1.802 0l1.384 1.389c.169.17.264.4.264.64v.905h-9.24zm3.44 63.191h-.251c-.729 0-.822.12-.822.772v1.742h2.874v-1.742c0-.652-.092-.772-.821-.772h-.252v-1.17h4.861v1.17h-.49c-.728 0-.82.12-.82.772v5.041c0 .652.092.772.82.772h.49v1.17h-4.861v-1.17h.252c.729 0 .821-.12.821-.772v-2.088h-2.874v2.088c0 .652.093.772.822.772h.251v1.17h-4.861v-1.17h.49c.729 0 .808-.12.808-.772v-5.041c0-.652-.079-.772-.808-.772h-.49v-1.17h4.861zm10.519 5.72 2.278-6.89h2.649l2.186 6.929c.199.612.358.826.914.826h.45v1.17h-4.901v-1.17h.372c.582 0 .807-.054.807-.32 0-.079-.039-.173-.066-.279l-.344-1.104h-2.556l-.331 1.024c-.053.16-.067.292-.067.359 0 .279.199.32.715.32h.437v1.17h-3.894v-1.17h.318c.715 0 .821-.24 1.033-.865zm3.974-1.995-.887-2.82-.914 2.82zm25.977-3.765c-.172-.013-.318-.013-.45-.013-.875 0-.901.319-.901 1.316v3.578c0 1.278.371 1.863 1.524 1.863 1.337 0 1.827-.518 1.827-1.756v-3.618c0-1.064-.079-1.383-.94-1.383-.106 0-.225 0-.345.013v-1.13h3.961v1.13c-.623 0-.993.053-1.126.213-.106.12-.106.518-.106 1.17v3.778c0 1.889-1.272 2.913-3.722 2.913-2.239 0-3.523-1.038-3.523-2.806v-3.924c0-.985-.12-1.357-.848-1.357-.106 0-.239 0-.384.013v-1.13h5.033zm32.935-1.396c3.125 0 4.98 1.809 4.98 4.735s-1.855 4.721-4.98 4.721c-3.126 0-4.994-1.795-4.994-4.721s1.868-4.735 4.994-4.735zm0 8.233c1.496 0 2.105-1.131 2.105-3.498 0-2.368-.609-3.499-2.105-3.499-1.497 0-2.106 1.131-2.106 3.499 0 2.367.609 3.498 2.106 3.498zm15.051-3.418c-.583-.466-.901-1.118-.901-1.916 0-1.782 1.298-2.846 3.616-2.846 1.113 0 2.001.226 2.676.745l.265-.625h1.099v3.258h-1.219c-.158-1.33-1.152-2.114-2.623-2.114-.926 0-1.443.425-1.443 1.037 0 .864.981.838 2.808 1.29 1.987.492 2.94 1.371 2.94 2.913 0 1.743-1.377 2.899-3.682 2.899-1.126 0-2.211-.332-2.861-.798l-.358.652h-1.072v-3.511h1.192c.212 1.45 1.311 2.354 2.755 2.354 1.02 0 1.603-.425 1.603-1.064 0-.877-.782-.944-1.987-1.237-1.219-.293-2.159-.518-2.808-1.037zm16.532-4.815c3.125 0 4.98 1.809 4.98 4.735s-1.855 4.721-4.98 4.721c-3.127 0-4.994-1.795-4.994-4.721s1.867-4.735 4.994-4.735zm0 8.233c1.496 0 2.105-1.131 2.105-3.498 0-2.368-.609-3.499-2.105-3.499-1.497 0-2.107 1.131-2.107 3.499 0 2.367.61 3.498 2.107 3.498zm18.015-5.746c0 1.038-.702 1.755-2.04 2.008 1.086.186 1.576.666 1.576 1.796v.865c0 .665.067.957.384.957.372 0 .45-.452.45-1.396h.888c0 .119.013.239.013.345 0 1.637-.648 2.394-2.066 2.394-1.51 0-2.159-.731-2.159-2.287v-.851c0-.971-.199-1.197-1.218-1.197h-1.086v2.128c0 .652.092.772.82.772h.478v1.17h-5.087v-1.17h.49c.729 0 .808-.12.808-.772v-5.041c0-.652-.079-.772-.808-.772h-.49v-1.17h5.841c2.146 0 3.206.718 3.206 2.221zm-4.212-1.051h-1.046v2.514h.94c1.231 0 1.735-.226 1.735-1.21 0-.998-.49-1.304-1.629-1.304zm28.643 3.804c.755 0 1.298.518 1.298 1.238 0 .651-.411 1.05-1.06 1.05-.158 0-.344-.026-.53-.079.331.478.795.717 1.365.717 1.059 0 1.39-.638 1.39-1.968v-3.99c0-.652-.092-.772-.821-.772h-.556v-1.17h5.206v1.17h-.478c-.728 0-.82.12-.82.772v3.99c0 2.222-.994 3.258-3.286 3.258-1.933 0-3.152-1.077-3.152-2.579 0-.971.596-1.637 1.444-1.637zm15.285-5.24c3.126 0 4.981 1.809 4.981 4.735s-1.855 4.721-4.981 4.721-4.993-1.795-4.993-4.721 1.867-4.735 4.993-4.735zm0 8.233c1.497 0 2.106-1.131 2.106-3.498 0-2.368-.609-3.499-2.106-3.499-1.496 0-2.106 1.131-2.106 3.499 0 2.367.61 3.498 2.106 3.498zm23.939-1.077 2.278-6.89h2.649l2.185 6.929c.2.612.358.826.914.826h.451v1.17h-4.901v-1.17h.371c.583 0 .808-.054.808-.32 0-.079-.04-.173-.066-.279l-.345-1.104h-2.556l-.331 1.024c-.053.16-.067.292-.067.359 0 .279.199.32.716.32h.437v1.17h-3.894v-1.17h.317c.716 0 .822-.24 1.034-.865zm3.974-1.995-.888-2.82-.914 2.82zm12.942-3.725h-.305c-.728 0-.82.12-.82.772v2.354l2.966-2.581c.133-.119.199-.226.199-.332 0-.147-.159-.213-.49-.213h-.623v-1.17h4.438v1.17h-.425c-.489 0-.847.306-1.364.746l-1.536 1.343 2.411 3.924c.238.385.45.572.808.572h.384v1.17h-4.795v-1.17h.384c.411 0 .609-.067.609-.267 0-.093-.039-.16-.106-.266l-1.457-2.42-1.403 1.209v.972c0 .652.092.772.82.772h.305v1.17h-4.861v-1.17h.49c.728 0 .808-.12.808-.772v-5.041c0-.652-.08-.772-.808-.772h-.49v-1.17h4.861zm14.228-.04c-.173-.013-.318-.013-.451-.013-.874 0-.9.319-.9 1.316v3.578c0 1.278.371 1.863 1.523 1.863 1.338 0 1.828-.518 1.828-1.756v-3.618c0-1.064-.08-1.383-.941-1.383-.106 0-.225 0-.344.013v-1.13h3.96v1.13c-.622 0-.993.053-1.126.213-.106.12-.106.518-.106 1.17v3.778c0 1.889-1.271 2.913-3.722 2.913-2.238 0-3.523-1.038-3.523-2.806v-3.924c0-.985-.119-1.357-.848-1.357-.106 0-.238 0-.384.013v-1.13h5.034zm25.844 5.095v-4.283c0-.652-.093-.772-.821-.772h-.504v-1.17h4.054v1.17h-.411c-.728 0-.821.12-.821.772v6.983h-2.728l-3.643-6.637v4.695c0 .652.092.772.822.772h.503v1.17h-4.107v-1.17h.464c.728 0 .822-.12.822-.772v-5.041c0-.652-.094-.772-.822-.772h-.464v-1.17h4.252zm28.656-6.491c.967 0 1.801.279 2.583.864l.264-.705h1.219v3.631h-1.298c-.106-1.582-1.853-2.487-2.239-2.487-1.404 0-2.265 1.211-2.265 3.405 0 2.208.835 3.419 2.279 3.419 1.219 0 2.026-.865 2.119-2.395h1.404c-.066 2.462-1.404 3.724-3.96 3.724-2.901 0-4.728-1.875-4.728-4.734 0-1.437.436-2.554 1.351-3.458.887-.879 1.92-1.264 3.271-1.264zm13.353 1.436h-.251c-.729 0-.822.12-.822.772v1.742h2.874v-1.742c0-.652-.092-.772-.821-.772h-.252v-1.17h4.861v1.17h-.49c-.728 0-.821.12-.821.772v5.041c0 .652.093.772.821.772h.49v1.17h-4.861v-1.17h.252c.729 0 .821-.12.821-.772v-2.088h-2.874v2.088c0 .652.093.772.822.772h.251v1.17h-4.861v-1.17h.49c.729 0 .808-.12.808-.772v-5.041c0-.652-.079-.772-.808-.772h-.49v-1.17h4.861zm14.704-1.436c3.126 0 4.98 1.809 4.98 4.735s-1.854 4.721-4.98 4.721c-3.125 0-4.993-1.795-4.993-4.721s1.868-4.735 4.993-4.735zm0 8.233c1.497 0 2.106-1.131 2.106-3.498 0-2.368-.609-3.499-2.106-3.499-1.496 0-2.105 1.131-2.105 3.499 0 2.367.609 3.498 2.105 3.498zm14.281-8.233c3.126 0 4.98 1.809 4.98 4.735s-1.854 4.721-4.98 4.721-4.994-1.795-4.994-4.721 1.868-4.735 4.994-4.735zm0 8.233c1.496 0 2.106-1.131 2.106-3.498 0-2.368-.61-3.499-2.106-3.499-1.497 0-2.106 1.131-2.106 3.499 0 2.367.609 3.498 2.106 3.498zm31.795-6.797h-.543c-.728 0-.822.12-.822.772v5.041c0 .652.094.772.822.772h.543v1.17h-5.245v-1.17h.542c.73 0 .809-.12.809-.772v-5.041c0-.652-.079-.772-.809-.772h-.542v-1.17h5.245zm14.928 3.286c0 3.032-1.709 4.469-5.232 4.469h-4.702v-1.17h.49c.729 0 .808-.12.808-.772v-5.041c0-.652-.079-.772-.808-.772h-.49v-1.17h4.702c3.523 0 5.232 1.423 5.232 4.456zm-6.145-3.286v6.585h.913c1.722 0 2.345-.999 2.345-3.299 0-2.395-.636-3.286-2.411-3.286zm29.46 0h-.556c-.728 0-.821.12-.821.772v5.813h.702c.953 0 1.603-.014 2.026-.427.411-.385.57-1.037.65-2.048h1.165v3.645h-8.331v-1.17h.49c.728 0 .808-.12.808-.772v-5.041c0-.652-.08-.772-.808-.772h-.49v-1.17h5.165zm31.119 0h-.556c-.728 0-.821.12-.821.772v5.813h.702c.953 0 1.603-.014 2.026-.427.411-.385.57-1.037.65-2.048h1.165v3.645h-8.331v-1.17h.49c.728 0 .808-.12.808-.772v-5.041c0-.652-.08-.772-.808-.772h-.49v-1.17h5.165zm29.276.931c0 .971-.636 1.716-1.841 2.102 1.536.332 2.291 1.064 2.291 2.274 0 1.849-1.271 2.448-3.96 2.448h-5.046v-1.17h.489c.729 0 .809-.12.809-.772v-5.041c0-.652-.08-.772-.809-.772h-.489v-1.17h5.192c2.251 0 3.364.611 3.364 2.101zm-4.768 5.654h.701c1.285 0 1.895-.413 1.895-1.437 0-1.051-.597-1.477-1.908-1.477h-.688zm.648-6.585h-.648v2.541h.595c1.166 0 1.696-.386 1.696-1.304 0-.891-.503-1.237-1.643-1.237z" fill="#be1400" fill-rule="evenodd"/>
</svg>
