<?xml version="1.0" encoding="UTF-8"?>
<svg width="1852px" height="444px" enable-background="new 0 0 1852 444" inkscape:version="1.0.2 (e86c870879, 2021-01-15)" sodipodi:docname="Love_Live!_series_logo.svg" version="1.1" viewBox="0 0 1852 444" xml:space="preserve" xmlns="http://www.w3.org/2000/svg" xmlns:cc="http://creativecommons.org/ns#" xmlns:dc="http://purl.org/dc/elements/1.1/" xmlns:inkscape="http://www.inkscape.org/namespaces/inkscape" xmlns:rdf="http://www.w3.org/1999/02/22-rdf-syntax-ns#" xmlns:sodipodi="http://sodipodi.sourceforge.net/DTD/sodipodi-0.dtd"><metadata><rdf:RDF><cc:Work rdf:about=""><dc:format>image/svg+xml</dc:format><dc:type rdf:resource="http://purl.org/dc/dcmitype/StillImage"/><dc:title/></cc:Work></rdf:RDF></metadata><sodipodi:namedview bordercolor="#666666" borderopacity="1" gridtolerance="10" guidetolerance="10" inkscape:current-layer="g1024" inkscape:cx="880.90659" inkscape:cy="358.50099" inkscape:pageopacity="0" inkscape:pageshadow="2" inkscape:window-height="1014" inkscape:window-maximized="1" inkscape:window-width="1920" inkscape:window-x="0" inkscape:window-y="36" inkscape:zoom="0.48565865" objecttolerance="10" pagecolor="#ffffff" showgrid="false"/>
<path d="m1787 .51v-.012h-.092c-2.83-.318-5.7-.498-8.61-.498s-5.78.18-8.61.498h-1685c-2.83-.318-5.7-.498-8.61-.498-42 0-76 34-76 76v292c0 42 34 76 76 76h1710v-.51c37.9-4.32 67.3-36.5 67.3-75.5v-292c0-39.1-29.4-71.2-67.3-75.5z" fill="#E4007F"/>
<g fill="#fff">
	<path d="m384 107h-279c-7.62 0-16.4 5.72-19.4 12.7l-6.53 14.9c-3.04 6.99.7 12.7 8.3 12.7h280c7.61 0 16.1-5.81 18.9-12.9l5.74-14.5c2.8-7.09-1.14-12.9-8.76-12.9z"/>
	<path d="m361 166h-281c-7.62 0-16.1 5.83-18.9 12.9l-5.9 14.9c-2.8 7.1 1.14 12.9 8.76 12.9h247c7.62 0 12.4 3.55 10.7 7.94-1.72 4.36-7.38 10.8-12.6 14.2-5.2 3.46-15.7 6.3-23.3 6.3h-147c-7.62 0-16.1 5.81-18.9 12.9l-5.88 14.9c-2.81 7.09 1.12 12.9 8.75 12.9h118c7.62 0 19.1-3.44 25.4-7.61l79.5-52.1c6.36-4.19 13.9-13.4 16.7-20.5l6.65-16.8c2.79-7.08-1.14-12.9-8.77-12.9z"/>
	<path d="m712 107h-280c-7.62 0-16.2 5.79-19.1 12.8l-6.29 15.3c-2.88 7.08.955 12.9 8.59 12.9h248c7.6 0 11.6 5.81 8.75 12.9l-15 38c-2.8 7.1-10.3 16.4-16.6 20.6l-12.1 8.09c-6.32 4.25-17.7 7.73-25.4 7.73h-67.9c-7.62 0-16.1 5.78-18.9 12.9l-5.95 15.1c-2.8 7.09 1.13 12.9 8.76 12.9h41c7.64 0 19-3.52 25.3-7.83l95-64.8c6.28-4.32 13.7-13.6 16.5-20.7l24.8-62.9c2.78-7.09-1.14-12.9-8.76-12.9z"/>
	<path d="m745 119-6.53 14.9c-3.05 6.99.699 12.7 8.3 12.7h280c7.63 0 16.1-5.81 18.9-12.9l5.74-14.5c2.8-7.09-1.14-12.9-8.77-12.9h-279c-7.62 0-16.3 5.72-19.4 12.7z"/>
	<path d="m1020 166h-281c-7.62 0-16.1 5.83-18.9 12.9l-5.88 14.9c-2.8 7.1 1.12 12.9 8.76 12.9h247c7.61 0 12.4 3.55 10.7 7.94-1.74 4.36-7.4 10.8-12.6 14.2-5.2 3.46-15.7 6.3-23.3 6.3h-147c-7.62 0-16.1 5.81-18.9 12.9l-5.87 14.9c-2.81 7.09 1.13 12.9 8.75 12.9h118c7.62 0 19.1-3.44 25.4-7.61l79.5-52.1c6.36-4.19 13.9-13.4 16.7-20.5l6.63-16.8c2.82-7.08-1.14-12.9-8.74-12.9z"/>
	<path d="m1372 107h-83.4c-7.6 0-18.2 4.49-23.5 9.98l-62.3 64.4c-5.29 5.48-15.8 9.96-23.5 9.96h-121c-7.62 0-16.3 5.72-19.3 12.8l-6.72 15.8c-3 7 .764 12.8 8.39 12.8h94.6c7.62 0 19-3.52 25.3-7.81l21.4-14.6c6.29-4.31 9.15-2 6.36 5.09l-18.9 48c-2.81 7.07 1.14 12.9 8.75 12.9h5.75c7.6 0 16.1-5.83 18.9-12.9l31.3-79.4c2.8-7.08 10.3-16.4 16.6-20.6l11.4-7.64c6.33-4.27 17.7-7.74 25.3-7.74h67.9c7.62 0 16.1-5.81 18.9-12.9l5.96-15.1c2.8-7.09-1.14-12.9-8.75-12.9z"/>
	<path d="m1701 107h-280c-7.62 0-16.2 5.79-19.1 12.8l-6.29 15.3c-2.88 7.08.971 12.9 8.57 12.9h248c7.62 0 11.6 5.81 8.75 12.9l-15 38c-2.79 7.1-10.3 16.4-16.6 20.6l-12.1 8.09c-6.34 4.25-17.8 7.73-25.4 7.73h-67.9c-7.59 0-16.1 5.78-18.9 12.9l-5.95 15.1c-2.81 7.09 1.12 12.9 8.74 12.9h41c7.62 0 19-3.52 25.3-7.83l95-64.8c6.29-4.32 13.7-13.6 16.5-20.7l24.8-62.9c2.79-7.09-1.14-12.9-8.76-12.9z"/>
	<path d="m1799 92.3-29.9 19.9c-6.34 4.24-13.8 13.5-16.6 20.6l-22.6 57.4c-2.8 7.11 1.14 12.9 8.76 12.9h11.3c7.62 0 16.2-5.81 18.9-12.9l36.6-92.7c2.81-7.11-.102-9.45-6.43-5.21z"/>
	<path d="m1739 229h-11.3c-7.62 0-16.1 5.8-18.9 12.9l-8.15 20.6c-2.79 7.09 1.13 12.9 8.75 12.9h11.3c7.6 0 16.1-5.81 18.9-12.9h.006l8.15-20.6c2.79-7.09-1.16-12.9-8.76-12.9z"/>
	<path d="m687 86.2 23-15.3c6.34-4.22 13.8-13.5 16.6-20.6l2.49-6.32c2.8-7.09-1.16-12.9-8.76-12.9h-6.36c-7.62 0-16.1 5.81-18.9 12.9l-14.5 36.9c-2.8 7.11.102 9.43 6.46 5.25z"/>
	<path d="m735 86.2 23.2-15.3c6.34-4.19 13.8-13.4 16.6-20.5l2.49-6.32c2.8-7.09-1.14-12.9-8.76-12.9h-6.56c-7.6 0-16.1 5.81-18.9 12.9l-14.5 36.9c-2.81 7.11.085 9.47 6.44 5.28z"/>
	<path d="m1672 86.2 23-15.3c6.36-4.22 13.8-13.5 16.6-20.6l2.49-6.32c2.8-7.09-1.12-12.9-8.76-12.9h-6.36c-7.61 0-16.2 5.81-18.9 12.9l-14.6 36.9c-2.8 7.11.114 9.43 6.47 5.25z"/>
	<path d="m1720 86.2 23.2-15.3c6.34-4.19 13.8-13.4 16.6-20.5l2.49-6.32c2.79-7.09-1.14-12.9-8.76-12.9h-6.56c-7.6 0-16.1 5.81-18.9 12.9l-14.5 36.9c-2.81 7.11.103 9.47 6.46 5.28z"/>
</g>
<g fill="#fff">
	<path d="m84.4 325c5.6-.875 11.3-.139 16.9-.354 2.5.063 5.41-.021 7.38 1.77 1.8 3.32 3.11 7.22 6.5 9.29 3.73-.061 6.44-3.86 6.13-7.4-1.13-3.41-2.67-6.79-4.95-9.58-2.26-2.04-5.1-3.51-8.08-4.09-8.5-.881-17.2-1.14-25.6.047-5.02.764-8.9 4.52-11.7 8.57-2.3 3.52-2.81 7.91-2.61 12 .143 3.26-.179 6.53.096 9.78.845 4.02 2.58 8.02 5.63 10.8 1.5 1.43 3.38 2.34 5.06 3.52 2.85.52 5.59 1.67 8.52 1.6 5.28 0 10.6-.055 15.8-.014 3.11-.041 5.04 2.77 6.76 4.98.747 4.5.465 9.1.232 13.6.13 2.65-1.93 4.73-4.09 5.88-4.1 2.16-8.82.971-13.2 1.32-4.32-.123-9.62 1.1-13-2.45-1.5-2.74-1.68-6.25-4.49-8.17-1.87.182-4.22-.68-5.66.91-1.56 1.89-2.09 4.63-1.21 6.95 1.04 4.58 3.6 9.28 8.13 11.1 5.42 2.8 11.7 2.09 17.5 2.16 3.42-.055 6.86.133 10.3-.096 4.01-.637 7.82-2.48 10.9-5.17 2.18-2 3.32-4.81 4.78-7.34.872-6.15 1.17-12.4.433-18.6-.934-7.43-6.92-13.5-14-15.2-3.42-.576-6.88-.09-10.3-.25-3.94-.152-8 .598-11.8-.664-2.7-.527-5.2-2.8-5.43-5.66-1.03-4.8-.569-9.78.226-14.6 1.02-2.05 2.9-3.61 4.88-4.66z"/>
	<path d="m466 388c-4.1-1.15-8.42-.262-12.6-.602-1.98-.133-1.61-2.43-1.67-3.84-.047-21.3.028-42.5-.02-63.8.172-1.94-1.01-3.81-2.72-4.64-2.9-.533-5.84-1.04-8.79-.791-4.29.424-8.88-.609-12.9 1.38-2.52 1.12-1.6 4.42-1.43 6.61 2.5 4.03 7.7 2.83 11.7 2.77 1.39.125 3.82-.277 4.02 1.66.007 19.2.033 38.3-.022 57.5 0 1.16.125 2.93-1.38 3.16-4.28.645-8.66-1.48-12.8.402-1.1 2.02-2.13 4.38-1.26 6.69.589 1.96 2.58 3.29 4.6 3.15 10.7.1 21.4.063 32.2.021 4.75.267 6.51-7 3.19-9.73z"/>
	<path d="m552 329c2.58.52 5.16 1.45 7.83 1.19 3.17-1.35 5.63-4.73 5.55-8.25-.426-2.43-1.06-5.15-3.1-6.73-2.08-1.93-5.17-1.68-7.73-1.12-1.5.332-3.26.527-4.23 1.88-1.27 3.05-2.24 6.61-1.03 9.83.637 1.23 1.1 3.02 2.72 3.19z"/>
	<path d="m781 387c-3.86-.805-7.87.797-11.6-.473-.123-22.4-.007-44.9-.054-67.3.253-2.01-1.41-3.52-2.94-4.47-2.82-.596-5.72-1.29-8.61-.908-4.82.574-10.3-1.06-14.5 2.16-.034 2.14-.404 4.42.29 6.47 2.68 3.2 7.15 2.25 10.8 2.02 1.58.006 3.86-.027 4.56 1.76.446 4.35-.021 8.74.082 13.1 0 15.5.062 30.9-.089 46.4-1.02 1.81-3.51 1.13-5.21 1.16-2.94-.52-5.89-.367-8.78.318-.534.584-1.06 1.17-1.58 1.76-.047 1.95-.029 3.9-.015 5.84 1.33 1.28 2.96 2.42 4.89 2.34 10.5.09 21 .006 31.5.047 3.35.279 5.98-3.51 5.34-6.65-.525-1.83-1.97-3.68-4.03-3.54z"/>
	<path d="m1101 315c-1.98-1.06-4.31-.977-6.42-.484-1.8.34-3.96.805-4.72 2.72-.879 2.86-1.56 6.02-.488 8.93.453 1.35 1.02 3.13 2.65 3.35 2.33.568 4.67 1.45 7.12 1.23 3.1-.854 5.44-3.62 6.11-6.73.296-3.41-1.01-7.45-4.25-9.01z"/>
	<path d="m1619 330c5.49-2.79 5.02-11 1.16-15-3.2-1.9-6.94-.408-10.4-.311-.74.762-1.46 1.54-2.15 2.31-1.05 3.95-1.48 8.28.666 12 3.46.783 7.16 1.71 10.7 1.01z"/>
	<path d="m253 339c-7.35-.334-14.7-.105-22-.092-3.02-.168-5.74 1.77-8.77 1.31-.261-4.58.083-9.16-.007-13.7-.021-2.75.432-5.57-.282-8.27-.453-1.49-1.74-2.44-2.78-3.49-2.38-.93-5.18-.133-6.54 2.08-1.15 2.84-.934 5.97-.851 8.96-.022 20.8.048 41.6-.027 62.4-.096 2.46.445 4.86.822 7.28.528.592 1.05 1.18 1.58 1.78 2.23.055 5.02.686 6.59-1.4 2.02-3.33 1.43-7.41 1.48-11.1.014-8.11-.096-16.2.007-24.3-.062-4.9 3.53-9.49 8.06-11 6.67-.137 13.4-.055 20-.041 1.39-.047 2.18 1.39 3.22 2.11.095 2.08.548 4.13.637 6.21-.096 9.46.213 18.9-.007 28.4-.035 3.8-.232 8.15 2.49 11.2 2.12-.016 4.69.678 6.38-1.03 1.17-1.72 1.63-3.88 1.62-5.96-.021-10.6.005-21.2 0-31.9-.021-3.18.294-6.49-.893-9.51-2.07-4.51-5.78-8.66-10.7-9.84z"/>
	<path d="m649 315c-2.2-1.87-5.87-.971-7.32 1.41-1.26 4.56-.693 9.31-.747 14 .049 2.61 1.99 7.04-1.51 8.06-8.23.096-16.5.063-24.7-.055-3.47-.266-6.93.65-9.72 2.77-4.67 2.98-6.72 8.67-6.76 14.1.034 8.79-.036 17.6.012 26.4.708 4.94 2.7 10.2 7.24 12.7 2.32 1.06 4.49 2.82 7.18 2.66 7.55.195 15.1.008 22.6.105 2.38.131 4.53-1.66 6.97-.916 2.66.68 6.07 1.62 8.04-.977 1.06-3.79 1.6-7.72 1.19-11.6.035-20.8-.124-41.6.171-62.4.012-2.31-.783-4.78-2.68-6.18zm-8.01 43.7c-.378 6.47-.19 13-.012 19.4-.221 2.39.034 5.41-2.09 7.02-3.09 2.11-6.96 1.41-10.5 1.46-4.31.07-8.64.049-12.9.229-2.09.119-4.29-.756-5.5-2.51-1.36-2.77-1.46-5.97-1.38-9.01.357-7.99-.685-16.1.995-24 .65-1.11 1.61-2.51 3.06-2.38 8.4-.021 16.8-.098 25.2.047.707.596 1.43 1.17 2.19 1.73.368 2.64 1.08 5.26.938 7.95z"/>
	<path d="m1320 339c-6.95-.207-13.9.078-20.8-.014-1.04.076-2.08-.459-2.55-1.4-.354-3.22.277-6.46.023-9.69-.219-3.06.555-6.17-.256-9.19-.732-2.12-2.4-4.19-4.77-4.36-2.31-.145-3.96 1.76-5.38 3.32-.305 6.52.049 13.1.018 19.6-2.99 2.66-7.68.574-10.2 3.89-.563 1.66-.541 3.55-.021 5.22 2.1 2.65 5.39 3.48 8.62 3.04.535.492 1.08.984 1.63 1.48-.125 10.8-.055 21.7-.02 32.5-.084 1.68.988 3.06 1.43 4.62 1.94 4.93 6.7 8.08 11.6 9.4 6.04.283 12.6.721 17.9-2.77 2.7-2.02 4.23-5.1 5.76-8.04 1.41-3.62-1.78-8.14-5.64-7.91-3.07.59-3.75 4.02-5.74 5.96-3.39 3.69-9.73 3.79-13.5.646-2.27-4.7-1.24-10.1-1.37-15.1-.283-5.78.35-11.6-.404-17.3-.549-1.57.953-2.46 1.85-3.46 6.99-.119 14 .164 21-.141 1.97-1.14 4.13-2.93 4.18-5.44.311-2.22-1.99-3.41-3.27-4.82z"/>
	<path d="m188 378c-2.91.352-4.18 3.35-5.71 5.48-1.08 2.27-3.54 3.59-6 3.39-6.38-.457-12.8.16-19.2-.229-2.43-.223-5.23-1.31-6.15-3.81-.706-1.91-.542-4.02-.645-6.03.151-6.25.117-12.5-.061-18.7.266-3.24.465-7.15 3.57-9.01 8.77-.07 17.5-.008 26.3-.027 2.72 2.27 3.32 6.59 6.74 8.03 3.02.367 5.25-2.58 6.4-5.06-1.12-3.42-1.86-7.32-4.75-9.75-1.82-1.42-3.83-2.6-5.97-3.45-5.5-.416-11-.146-16.5-.215-5.07.082-10.2-.215-15.2.201-2.09.859-3.83 2.42-5.57 3.83-3.67 3.06-4.84 8.09-5.23 12.7-.067 7.15.069 14.3-.026 21.4.013 3.86.006 7.94 1.82 11.5 2.6 5.82 9.1 9.33 15.3 9.01 7.09-.068 14.2.105 21.3-.09 3.57-.408 7.39-1.3 10-3.94 2.41-2.65 4.47-5.87 4.9-9.49-.809-2.53-2.98-4.53-5.3-5.68z"/>
	<path d="m336 354c-.494-2.97-1.57-5.86-3.09-8.45-1.43-2.54-4.16-3.79-6.52-5.24-2.17-1.44-4.9-.82-7.35-1-8.03.207-16.1-.166-24.1.201-5.1 1.07-9.6 5.21-11 10.3-1.88 5.83-.844 12.1-1.22 18.1.57 7.09-1.27 14.7 2.02 21.3 2.38 5.34 8.1 8.42 13.7 8.75 7.55-.014 15.1.014 22.6-.008 5.77-.254 10.4-4.35 13.5-8.96.576-2.86 1.54-5.67 1.46-8.62-.172-8.79.055-17.6-.082-26.4zm-11.8 31.7c-1.45 1.26-3.2 2.22-5.17 2.02-6.43-.256-12.9.113-19.3-.191-1.78-.037-3.42-.779-5.04-1.41-1.36-2.14-1.12-4.76-1.21-7.18.103-8.1-.027-16.2.076-24.3-.151-2.32 1.54-5.18 4.12-4.94 8.21.049 16.4-.09 24.6.063 2.54.924 3.05 4 3.34 6.38.261 7.61-.076 15.2.109 22.9.206 2.37-.87 4.52-1.56 6.72z"/>
	<path d="m405 346c-1.76-3.29-5.2-5.17-8.42-6.68-8.9-.443-17.8.006-26.7-.207-3.57-.334-6.89 1.4-9.69 3.47-3.05 2.31-4.36 6.16-5.34 9.71-.218 9.96-.02 19.9-.103 29.9-.199 2.35 1.15 4.38 1.58 6.61 1.32 1.86 2.37 4.08 4.33 5.37 2.77 1.86 5.85 3.61 9.29 3.53 7.29.098 14.6 0 21.9.055 8.42.125 16.3-7.68 15.8-16.3.055-9 .158-18 .048-27 .069-3.04-1.05-5.96-2.64-8.5zm-7.74 35.6c-.349 2.13-1.42 4.67-3.71 5.23-1.66.598-3.45.492-5.17.535-5.94-.104-11.9.096-17.8.125-3.65-.117-5.52-4.08-5.51-7.32-.014-7.64-.027-15.3.015-22.9.048-2.71.356-6.02 3.01-7.48 7.88-.387 15.8-.033 23.7-.172 1.27.063 3-.293 3.76 1.06.919 1.84 1.83 3.8 1.73 5.93.013 8.34.055 16.7-.007 25z"/>
	<path d="m578 387c-3.2-.637-6.49-.346-9.73-.41-1.4.105-2.37-.984-3.41-1.72-.343-3.93.783-7.79.445-11.7.131-9.91-.377-19.8-.192-29.7.022-2-.638-3.91-2.42-4.96-5.26-.082-10.5.244-15.8-.465-1.72.029-3.4.551-5.11.551-1.05.885-2.2 1.77-2.68 3.12-.994 1.91.487 3.81 1.16 5.55 1.25.658 2.39 1.8 3.92 1.63 3.16.047 6.33 0 9.5.006.693 1.06 1.89 2.06 1.66 3.47-.172 3.02-.885 6-.576 9.03.563 6.46-.324 12.9.294 19.4.171 1.91.117 4.2-1.52 5.48-3.92 1.08-8.15-.631-12 .852-.912.404-1.52 1.26-1.98 2.1-2.38 3.22 1.03 8.12 4.76 7.82 7.75.098 15.5.006 23.2.033 3.56-.041 7.14.168 10.7-.254 1.53-1.48 2.95-3.28 2.97-5.53-.376-1.82-1.44-3.63-3.26-4.26z"/>
	<path d="m718 343c-1.96-1.45-4.01-2.82-6.2-3.89-5-.553-10-.117-15.1-.229-5.45.117-10.9-.277-16.4.25-2.59 1.11-4.82 2.95-6.81 4.92-2.46 3.02-3.75 6.95-3.73 10.8.021 7.63.076 15.3-.012 22.9.095 3.51-.303 7.27 1.45 10.5 2.52 5.86 8.9 9.46 15.1 9.26 6.41-.014 12.8-.02 19.2 0 8.58.771 17-6.74 17.1-15.5-.007-9.74.074-19.5-.056-29.2-.889-3.5-2.06-7.17-4.66-9.78zm-5.73 29.9c-.145 3.92.844 8.2-1.26 11.8-1.38 1.84-3.82 2.63-6.04 2.45-5.97-.369-12 .164-17.9-.182-1.84-.063-3.72-.588-5.22-1.66-1.82-1.73-1.55-4.48-1.58-6.77.116-7.89-.084-15.8.062-23.7-.097-2.3 1.31-4.1 2.99-5.45 8.63-.049 17.3-.008 25.9-.021.864.875 2.15 1.53 2.42 2.84 1.36 6.82.547 13.8.671 20.7z"/>
	<path d="m906 353c-.604-5.28-3.84-10.3-8.64-12.6-2.01-1.65-4.65-1.16-7.04-1.3-5.28-.021-10.5.068-15.8.006-3.87.055-7.8-.305-11.6.645-2.72-.041-5.4-.846-8.14-.631-1.04 1.92-1.59 4.07-1.49 6.27 0 22.4-.016 44.9 0 67.3.123 2.12.295 4.8 2.18 6.14 1.76.25 3.58.283 5.34 0 1.7-1.17 2.74-3.34 2.74-5.4.371-4.66-.197-9.33.109-14 .076-1.34 1.21-2.36 2.57-2.02 8.01.57 16.1.201 24.1.318 7.28.119 14-5.67 15.5-12.8.311-2.54.199-5.1.275-7.65-.15-8.11.22-16.2-.075-24.3zm-14.3 33.9c-2.25.484-4.58.318-6.85.34-5.48-.111-11 .34-16.4 0-1.85.063-3.57-1.3-3.98-3.11-1.13-2.57-.757-5.43-.796-8.15-.035-5.31.096-10.6-.048-15.9-.11-2.56.384-5.07.815-7.58.096-1.33 1.45-1.96 2.24-2.86 8.83-.063 17.7-.014 26.5-.027 2.87 3.22 2.61 7.78 2.59 11.8-.047 6.25-.021 12.5.033 18.7.031 2.72-1.12 6.11-4.05 6.78z"/>
	<path d="m966 339c-4.33-.652-8.71-.209-13.1-.258-1.6.084-3.33-.145-4.71.824-3.13 1.87-7.25 1.44-10.1-.684-3.64-.189-7.35-.57-11 .191-2.02 1.15-3.91 3.86-2.55 6.19 1.49 3.92 6.37 4.1 9.89 3.94 1.92-.34 3.2 1.67 3.16 3.4-.494 10.6-.459 21.3-.047 31.9-.049 1-.777 2-1.77 2.2-2.2.443-4.47.213-6.65.719-1.79 1.68-2.95 4.52-1.56 6.82.746 2.58 3.75 3.07 6.04 3.12 8.24-.006 16.5.051 24.7-.027 2.24.133 4.1-1.54 5.18-3.38 1.73-2.77-.828-6.51-3.81-6.77-3.48-.736-7.09.506-10.5-.367-2.46-1.71-1.34-5.27-1.34-7.82.068-6.7.188-13.4-.137-20.1.391-3.38.35-7.43 3.35-9.66 4.07.014 8.14-.063 12.2.021 1.78-.07 2.62 2.04 3.2 3.45.055 3.79 1.18 7.41 1.58 11.2.502.43 1.02.859 1.54 1.29 2.68.299 6.06.09 7.14-2.94 1.28-4.71 1.03-9.93-1.04-14.4-1.36-4.48-5.61-7.2-9.72-8.8z"/>
	<path d="m1050 346c-2.83-4.64-8.1-7.73-13.6-7.37-8.7.277-17.4-.188-26.1.277-4.31 1.5-7.93 5.02-9.91 9.16-1.82 6.44-.811 13.2-1.06 19.8.289 6.47-.652 13.1.926 19.4 1.04 2.38 2.78 4.41 4.67 6.16 2.02 2.09 4.93 2.84 7.56 3.81 7.74.23 15.5.021 23.3.098 5.24.207 10.3-2.61 13.6-6.67 2.58-4.05 3.18-9.05 2.66-13.8.082-7.66.109-15.3.205-23 .016-2.83-1.37-5.31-2.22-7.92zm-9.1 38.2c-1.29 2.22-4.11 2.81-6.46 2.77-5.48-.221-11 .021-16.4 0-2.33-.119-4.99-.145-6.81-1.85-1.33-1.96-1.5-4.47-1.47-6.77.049-6.95-.027-13.9.027-20.8.287-2.99.008-6.55 2.96-8.27 8.41-.09 16.8-.076 25.2-.021 1.44-.109 2.23 1.32 3.24 2.13.939 6.65.521 13.4.604 20.1-.096 4.26.609 8.7-.879 12.8z"/>
	<path d="m1105 350c.041-3.77.715-8.54-2.73-11.1-5.43-.027-10.9.195-16.3-.389-1.58.119-3.13.424-4.68.514-.688.508-1.36 1.02-2.02 1.53-1.25 3.09-.557 7.24 2.87 8.5 3.3.602 6.76.041 10.1.27 1.21-.174 1.85 1.04 2.71 1.68.039 2.68-.207 5.35-.377 8.02.225 14.3-.008 28.7.102 43-.205 2.16-.24 5.21-2.56 6.14-3.38.719-6.85.006-10.3.234-2.85-.084-6.46.527-8.43-2.07-1.91-2.44.215-6.52-2.79-8.2-1.7-.67-3.64-.201-5.41-.297-.598.555-1.19 1.12-1.76 1.67-1.56 3.81-1.03 7.92.027 11.8 2.12 3.52 5.37 6.62 9.47 7.43 7.1.158 14.2.215 21.3-.023 6.22-1.26 10.7-7.49 10.7-13.8.199-9.06-.055-18.1.098-27.2-.199-9.25.213-18.5-.078-27.7z"/>
	<path d="m1180 346c-1.72-3.48-5.23-5.3-8.32-7.31-10.1-.186-20.2-.123-30.4-.041-5.28 1.16-9.34 5.66-11.4 10.6-.688 5.46-.535 11-.473 16.5.211 6.5-.281 13 .363 19.5.109 2.45 2.23 4.06 3.17 6.18 2.4 2.98 6.04 4.83 9.72 5.69 5.26.229 10.5.041 15.8.096 5.38-.055 11.1.557 16.1-1.88 3.96-2.59 7.2-6.77 7.76-11.6-.24-2.88-2.83-4.95-5.39-5.8-2.67.166-3.77 3.02-5.01 5.01-1.41 2.6-4.42 4.06-7.3 3.95-6.39-.117-12.8.078-19.2-.041-2.64-.047-4.96-1.98-5.46-4.6-.289-2.45-.439-4.96-.029-7.4.543-1.76 2.52-1.86 4.06-1.78 9.38.342 18.8.092 28.2.229 2.95.16 5.78-.816 8.59-1.64 2.18-1.52 1.57-4.33 1.63-6.62-.171-6.37.94-13.3-2.52-19zm-8.01 9.25c-.521 2.42-.514 4.96-1.47 7.28-2.74 1.25-5.7-.131-8.54.055-5.96.355-11.9-.082-17.8.285-2.03.299-5.12-.783-4.63-3.34.48-3.24-.273-7.07 2.16-9.66.65-1.09 2.04-.914 3.13-.941 8.03.035 16.1-.029 24.1.035 1.49 1.76 3.54 3.73 3.1 6.29z"/>
	<path d="m1214 349c8.71.014 17.4-.027 26.1.02 1.62 1.52 3.22 3.13 4.18 5.19 1.04 2.17 3.84 3.52 6.01 2.12 2.64-1.1 3.79-4.01 3.17-6.74-1.62-3.69-3.8-7.17-7.2-9.42-1.74-.473-3.24-1.75-5.11-1.55-9.17-.117-18.3-.047-27.5.016-2.06-.16-3.92.775-5.56 1.91-3.97 2.94-7.37 7.36-7.27 12.6.061 9.77-.057 19.5.102 29.3-.102 4.8 2.99 8.92 6.5 11.8 2.06 1 4.1 2.17 6.31 2.81 7.76.25 15.5.027 23.3.117 3.55.146 7.08-.934 10.2-2.65 2.98-1.98 4.54-5.33 6.17-8.41 1.12-3.61-1.93-8.4-5.93-7.74-3.84 1.06-3.88 6.23-7.49 7.58-1.89 1.16-4.17.951-6.26.854-3-.229-6 .041-8.99-.076-3.38-.104-6.87.576-10.2-.451-2.99-1.01-3.28-4.7-3.46-7.4-.02-6.94.041-13.9.02-20.8-.064-3.21.182-6.86 2.84-9.05z"/>
	<path d="m1395 349c8.55-.09 17.1-.041 25.7-.027 3.41 1.86 4.19 6.44 7.88 7.9 3.25.32 5.16-3.15 6.1-5.82-1.54-5.62-5.62-11.1-11.5-12.4-9.14-.352-18.3 0-27.4-.145-4.43-.41-8.15 2.61-11 5.7-3.23 4.32-3.98 9.93-3.42 15.2 1.12 4.33 3.58 8.22 7.12 11 .324.057.963.168 1.28.225 4.9 3.48 11.2 2.36 16.9 2.52 4.56.229 9.16-.424 13.7.25 3.49 1.5 4.28 6.05 3.32 9.4-1.23 2.2-3.53 3.64-5.95 4.09-6.41-.305-12.8-.076-19.2-.027-3.21.242-5.74-2.27-7.25-4.85-.92-1.17-1.42-3.01-3.09-3.24-1.3-.369-2.6-.104-3.88.033-1.62 1.66-3.31 3.86-2.85 6.35 1.52 3.47 3.2 7.1 6.36 9.33 2.83.992 5.49 2.87 8.61 2.64 7.55.098 15.1-.008 22.6.055 2.34.125 4.54-.908 6.66-1.82 4.19-1.75 6.85-5.94 8.19-10.2.83-5.44 1.04-11.5-2.54-16.1-2.48-4.33-7.55-6.66-12.4-6.52-6.4.096-12.8-.098-19.2.104-2.19.033-4.44-.555-6.15-1.96-.92-1.17-1.52-2.59-1.93-4.01-.52-2.14.799-4.03 1.45-5.96.628-.577 1.26-1.15 1.91-1.74z"/>
	<path d="m1497 339c-4.8-.332-9.6-.104-14.4-.15-5.31.16-10.6-.318-15.9.201-3.28 1.07-6.1 3.37-8.31 6-2.05 3.84-3.35 8.21-2.96 12.6-.008 4.61-.16 9.22-.057 13.8.262 5.92-.848 12.2 2.21 17.7 1.94 4.31 6.39 6.64 10.6 8.09 8.68.395 17.4.104 26.1.174 3.58-.736 7.69-1.53 9.97-4.75 1.65-2.32 3.8-4.5 4.38-7.4-.299-3.16-2.41-6.31-5.52-7.22-2.16 1.4-3.67 3.49-5.23 5.48-1.85 2.37-4.85 3.72-7.81 3.62-5.93-.248-11.9 0-17.8 0-2.36.105-5.23-1.24-5.56-3.83-.549-2.53-.852-5.12-1.15-7.68.27-1.85 2.39-2.42 4-2.27 10.1.117 20.2.082 30.2.063 2.79-.127 6.12-.479 7.69-3.17 2.57-3.82-.213-8.46.961-12.6 1.26-7.95-3.68-16.4-11.4-18.7zm-.701 24.1c-9.38-.16-18.8.033-28.1-.078-1.47.264-1.99-1.32-2.56-2.31.68-3.07.563-6.23 1.14-9.32.664-.719 1.34-1.44 2.04-2.15 8.26-.035 16.5-.014 24.8-.021 1.64-.201 2.88 1.16 3.92 2.27.385 2.98.494 6 .604 9.01.02 1.1-.411 2.76-1.81 2.6z"/>
	<path d="m1574 343c-1.81-1.44-3.7-2.78-5.75-3.83-5.92-.283-11.9-.479-17.8 0-1.31.479-2.47 1.28-3.74 1.81-2.64 1.77-4.48-2.27-7.15-1.93-3.94-.008-7.9-.402-11.8.131-1.82 1.09-1.35 3.59-1.37 5.39.172 1.11-.205 2.57.844 3.34 3.09 1.84 6.77 1.37 10.2 1.59 1.42 1.02 2.19 2.96 2.15 4.72-.246 7.65-.035 15.3-.125 23-.135 2.65.729 5.36.021 7.96-2.57 3.13-7.5 1.05-10.1 4.06-.941 1.8-.361 3.78-.098 5.67 1.15 1.1 2.19 2.78 4.01 2.66 9.14.043 18.3.008 27.4.021 2.14.229 3.48-1.78 4.37-3.44 1.75-2.28-.139-5.47-2.41-6.5-3.48-.783-7.08-.221-10.6-.5-2.07-.221-2.96-2.6-2.68-4.44.809-6.2.186-12.5.406-18.7.17-4.18-.477-8.46.59-12.6.809-.623 1.59-1.28 2.38-1.96 4.3-.139 8.6-.063 12.9-.049.586.764 1.18 1.5 1.83 2.25.584 3.79 1.43 7.56 1.53 11.4 1 .824 1.86 2.15 3.27 2.26 2.88.576 5.81-1.62 6.54-4.42.777-4.19.125-8.46-1.13-12.5-1.2-1.84-1.94-4.06-3.71-5.45z"/>
	<path d="m1636 388c-3.74-.783-7.59-.305-11.4-.555-1.68-.199-2.77-2.03-2.47-3.65.822-6.9.287-13.9.432-20.8-.309-7.36.598-14.8-.762-22.1-.402-2.03-2.74-1.38-4.19-1.48-6.12.209-12.2-.506-18.3.098-.693.514-1.37 1.03-2.02 1.54-.504 1.17-1.02 2.32-1.57 3.44.98 2.14 2.77 3.73 4.46 5.31 3.73.033 7.48-.127 11.2.09 1.04.791.988 2.18 1 3.36-.189 9.97-.211 19.9-.072 29.9-.057 1.83-.537 4.55-2.84 4.57-4.08.229-8.95-1.6-12.2 1.79-.502 1.14-1.04 2.25-1.58 3.36 1.32 2.34 3.21 5.37 6.28 5.03 10.5.055 21 .109 31.5-.027 3.02.416 4.81-2.6 5.5-5.11-.261-1.9-1.5-3.61-2.96-4.78z"/>
	<path d="m1699 378c-2.57 1.62-3.31 5.05-5.75 6.86-3.44 2.72-8.06 1.82-12.1 1.84-4.84-.248-9.74.514-14.5-.389-3.36-.768-3.48-4.76-3.67-7.56.074-1.78-.885-3.91.555-5.35.879-.713 2.12-.359 3.2-.441 9.83.262 19.7.041 29.5.164 2.89.07 6-.721 8.21-2.66 1.12-2.08.92-4.63.857-6.93-.486-4.4.51-8.83-.301-13.2-1.38-5.43-5.56-9.86-10.8-11.7-5.97-.318-11.9-.09-17.9-.131-4.36.098-8.76-.381-13.1.23-2.9 1.41-5.86 2.97-7.81 5.63-1.23 1.44-1.31 3.42-2.34 4.96-.975 3.26-.559 6.68-.516 10-.033 7.4-.047 14.8-.061 22.2.246 5.33 2.9 11 7.94 13.3 1.77.908 3.44 2.33 5.57 2.18 7.53.223 15.1.014 22.6.111 2.68.16 5.27-.686 7.85-1.35 3.68-1.4 5.75-4.96 7.95-8.01 2.83-3.81-.959-10.1-5.42-9.72zm-36.1-21.4c.063-2.37.344-4.94 1.84-6.87.803-1.01 2.18-.811 3.34-.852 7.8.082 15.6-.084 23.4.082 2.54.791 3.18 3.79 3.33 6.16-.084 2.61.68 5.62-1.22 7.75-6.45-.465-12.9-.076-19.4-.332-3.7.055-7.61.684-11.1-.867-.718-1.6-.24-3.38-.218-5.07z"/>
	<path d="m1776 372c-1.79-2.55-3.78-5.05-6.4-6.77-4.32-3-9.83-1.6-14.7-1.89-4.99-.332-10 .354-15-.318-3.92-.389-5.63-5.09-5.06-8.55.123-2.15 1.96-3.48 3.37-4.83 8.74-.02 17.5-.006 26.2 0 1.44 2.23 3.39 4.1 4.7 6.43.625 1.13 1.84 2.19 3.22 1.59 1.94-.963 3.66-2.43 4.92-4.22 1.11-2.06-.951-3.91-1.34-5.86-.357-2.06-2.23-3.25-3.1-5.04-2.82-1.51-5.67-3.75-9.04-3.31-9.39.035-18.8-.131-28.2.086-3.95 1.35-7.36 4.24-9.43 7.91-.328 2.04-1.62 3.82-1.6 5.93-.352 2.76-.033 5.53.166 8.29.844 1.09 1.29 2.39 1.42 3.77 1.34 1.52 2.32 3.39 3.93 4.68 1.23 1.1 2.94 1.39 4.26 2.4 2.06.299 3.89 1.59 6.03 1.48 7.83.061 15.7-.008 23.5.055 1.71 1.36 2.93 3.36 3.31 5.53.334 2.18-.928 4.07-1.82 5.93-1.44 2.05-4.14 2.34-6.41 2.19-5.93-.52-11.9.396-17.8-.193-2.8-.221-5.7-1.62-6.88-4.33-.791-1.88-2.1-3.75-4.25-4.04-2.43-.111-3.99 2-5.37 3.68-.123 1.57-.102 3.13.08 4.69 1.96 3.04 3.53 6.87 7.11 8.32 5.39 3.01 11.6 2.02 17.5 2.16 4.78-.041 9.58.07 14.4-.041 5.22-.742 9.31-4.51 12.2-8.76.469-2.51 1.7-4.84 1.61-7.46.394-3.32-1.26-6.32-1.57-9.54z"/>
</g>
</svg>
