<?xml version="1.0" encoding="UTF-8"?>
<svg width="540" height="469" inkscape:version="1.0.2 (e86c870879, 2021-01-15)" sodipodi:docname="μ’s.svg" version="1.1" viewBox="0 0 540 469" xmlns="http://www.w3.org/2000/svg" xmlns:cc="http://creativecommons.org/ns#" xmlns:dc="http://purl.org/dc/elements/1.1/" xmlns:inkscape="http://www.inkscape.org/namespaces/inkscape" xmlns:rdf="http://www.w3.org/1999/02/22-rdf-syntax-ns#" xmlns:sodipodi="http://sodipodi.sourceforge.net/DTD/sodipodi-0.dtd">
 <metadata>
  <rdf:RDF>
   <cc:Work rdf:about="">
    <dc:format>image/svg+xml</dc:format>
    <dc:type rdf:resource="http://purl.org/dc/dcmitype/StillImage"/>
    <dc:title>μ’s</dc:title>
   </cc:Work>
  </rdf:RDF>
 </metadata>
 <sodipodi:namedview bordercolor="#666666" borderopacity="1" fit-margin-bottom="0" fit-margin-left="0" fit-margin-right="0" fit-margin-top="0" gridtolerance="10" guidetolerance="10" inkscape:current-layer="图层_1" inkscape:cx="374.43901" inkscape:cy="148.63042" inkscape:pageopacity="0" inkscape:pageshadow="2" inkscape:window-height="1014" inkscape:window-maximized="1" inkscape:window-width="1920" inkscape:window-x="0" inkscape:window-y="36" inkscape:zoom="1.0685513" objecttolerance="10" pagecolor="#ffffff" showgrid="false"/>
 <title>μ’s</title>
 <g transform="matrix(.982 0 0 .982 5.59 4.36)" fill="#e3007a">
  <path d="m199 73.4c-14.8 7.11-76 49-81 62-.8 2.09 3 8 5 7s56.4-40 61-42c7-3 12 3 10 7s-120 219-125 229-52 94-57 103c-5 9-10 17-11 20-1 3-3 10 7 10 10 0 36-4 46-21s8.6-22.5 10-30c0 0 6-29 11-41s26.6-56.4 30-60c1.48-1.56 4-6 7-5 2.12.71 10 6 16 3a347 347 0 0061-40c28-23 93-81 94-82s5-4 4 0-44 79-49 90l-8 16c-1 2-3 14 7 15s33 0 68-26 53-43 54-45 4-8-2-11c-4-2-14 7-20 13 0 0-25 21-32 26s-19 8-22 8-7-2-3-11 44-81 55-98 45-78 48-84c1-2 2.26-4.14 3-6 2-5-5-12-9-14s-15-4-19 4c-1.61 3.22-33 53-55 77s-57 63-79 81-58 44-64 47-11 2-13 1-5-2-3-8 41-76 48-88 52-91 55-96 7-13 1-17-15.4-10.1-49 6z"/>
  <path d="m482 18.4s4-7 5-9 2-8-8-9-22 0-25 3-6 9-11 24-24 81-25 84 4 5 8 3 24-41 32-55c7.16-12.5 24-41 24-41z"/>
  <path d="m519 155c1.78 2.43 5 7 7 8s7-1 10-5a19.8 19.8 0 003-19c-3-8-14.3-15.9-33-11-23 6-54 33-57 58-2.75 22.9 7 43 12 53s11 29 1 40-29 24-51-4c-2-2.49-9-5-14 2-3.29 4.6-10 15-5 21 29.6 35.5 91-10 98-38 5.53-22.1 2-32-5-50s-14-43.2-7-53c15-21 35.9-8.94 41-2z"/>
 </g>
</svg>
