<svg xmlns="http://www.w3.org/2000/svg" id="svg179" width="437.12" height="153.688" version="1.1"><defs id="defs4"><filter id="filter54848" width="1.031" height="1.109" x="-.015" y="-.055" style="color-interpolation-filters:sRGB"><feGaussianBlur id="feGaussianBlur54850" stdDeviation="1.649"/></filter><filter id="filter54932" width="1.028" height="1.182" x="-.014" y="-.091" style="color-interpolation-filters:sRGB"><feGaussianBlur id="feGaussianBlur54934" stdDeviation="2.804"/></filter><style id="style2">.cls-4{fill:#e4007f}.cls-3,.cls-7{fill:#fff}.cls-4{stroke:#d4007f}.cls-4,.cls-5,.cls-7{stroke-miterlimit:10}.cls-5,.cls-6{fill:#f39800}.cls-5,.cls-7{stroke:#f18800;stroke-width:.75px}</style></defs><g id="layer3"><g id="g261-3" style="fill:#e4007f;fill-opacity:1;stroke-width:.999672;stroke-miterlimit:4;stroke-dasharray:none;filter:url(#filter54932)" transform="matrix(.86006 -.05905 0 .97541 -15.864 -23.744)"><path id="white_a-2-1" d="M12 84.21s-1.445.687-1.861 1.232c-.417.545-.639 2.038-.639 2.038L9 99.43l3.75 4.18 16.4.64a20.11 20.11 0 0 1-.89 3.21c-1.36 3.71-3.59 6.35-6.51 9.08a97 97 0 0 1-16.59 12.09s-.793 2.145-.786 3.264c.006 1.068.786 3.106.786 3.106l7.5 5.89 3 1.39s3.516 1.077 5.329 1.084c1.885.007 5.551-1.084 5.551-1.084a47.26 47.26 0 0 0 8.84-4.87 49.279 49.279 0 0 0 4-3.16l1.4-.27 3 2.89 13.07 11s1.873.625 2.81.625 2.81-.625 2.81-.625c1.612-1.462 4.001-3.038 5.258-4.808C69.053 141.195 70.14 137 70.14 137v-4.77l4.45 1.72s1.276.89 3.289.774c2.26-.131 3.351-.664 3.351-.664a26.11 26.11 0 0 0 9.48-7.18 25.76 25.76 0 0 0 4.4-7.72l19 .06a29.82 29.82 0 0 1-5.39 12.29l.08 3.22c5.002 7.268 10.129 9.513 18.02 7.13l2.14-1.66 4 3c3.5.63 10.19 1.26 16.61-2a21.9 21.9 0 0 0 3.85-2.46 23 23 0 0 0 7.29-10.64v-12.81l-3.96-3.29-5.5-.08-1.33 1.89-2 .2.2-18c-3.603-6.092-10.064-3.804-16.51-3.4a19.985 19.985 0 0 0-3.53 4.46c.053 5.153.1 10.303.14 15.45l-1.33-.59-3.06-3.1-.11-6.48s-.646-1.442-1.235-1.854c-.588-.411-2.295-.616-2.295-.616H98.05v-5.75c-.385-.518-.5-1.129-.968-1.575-.749-.716-1.898-1.21-2.802-1.715l-11.36.31L82 88.9l-3-2.57A46.1 46.1 0 0 0 72.74 85a46.82 46.82 0 0 0-6.67-.4l-3.13 3.54a132.4 132.4 0 0 1-1.07 7.58A120.13 120.13 0 0 1 59.08 108c.21 1.68.43 3.37.64 5.06l3.65 2.25 9.56-.13v.91a24 24 0 0 1-1.69 2.67 23.09 23.09 0 0 1-2.81 3.22l-14.46-8.44a43.93 43.93 0 0 0 4.36-12.08A43.47 43.47 0 0 0 59 88.82s-.583-1.778-1.197-2.448c-.72-.787-2.743-1.652-2.743-1.652l-8.19-.51z" class="cls-3" data-name="white_a" style="fill:#e4007f;fill-opacity:1;stroke:none;stroke-width:.999672;stroke-miterlimit:4;stroke-dasharray:none;stroke-opacity:1" transform="translate(29 29.5)"/><path id="white_b-2-4" d="M150.21 87.05v13.26a7.12 7.12 0 0 0 3.94 4.2c.285.104.58.178.88.22h13.9l-1.85 2.41a51.547 51.547 0 0 1-.29 7.5 59.12 59.12 0 0 1-1.5 7.82 71.71 71.71 0 0 1-4.24 11.92l-.37 4.75a19.83 19.83 0 0 0 7.69 4.82l9.51-.35A24.24 24.24 0 0 0 190 131.85a23.35 23.35 0 0 0 2-11.53l8.68-.8 3.7-2 3.43 3.45a17.53 17.53 0 0 0 9.37 2.74v16.6a7.19 7.19 0 0 0 1.34 2.2 7.27 7.27 0 0 0 1.77 1.45h14a4.59 4.59 0 0 0 4-3.59l.69-11.47.86.06a9.63 9.63 0 0 0 1.82 2.7 9.29 9.29 0 0 0 1.88 1.53l14.57-.22 1.39-1 .48 3.43a18.78 18.78 0 0 0 3.3 3.53 18.37 18.37 0 0 0 5.11 3l8.9-.21 2.89-1.82 2.25 3 13.93.11a19.46 19.46 0 0 0 9.11-6c.813 1.744.96 4.071 3.32 4.57l13.82-.11c2.364-.694 3.367-2.586 3.21-4.18v-3.1l17.9-.11a18.76 18.76 0 0 0 3.37 5.3A19.07 19.07 0 0 0 353 144h8.79a12.48 12.48 0 0 0 6.21-5.41 12.24 12.24 0 0 0 1.5-5.9l4.71 2.25 10.72-.1a11.16 11.16 0 0 0 3.57-2 10.94 10.94 0 0 0 2.11-2.45l6.64-1.08 1.29-.32V132a17.45 17.45 0 0 0 3.75 4.39 17.77 17.77 0 0 0 6.75 3.54l5.89-.22a19.86 19.86 0 0 0 4.91-3.4 20.33 20.33 0 0 0 4.09-5.38v-10.61l6-.21V129l4 2.25a17.32 17.32 0 0 0 5.79 12.7l29.25-2.52 1.61 2L477 143a16.07 16.07 0 0 0 3.63-3.11 15.83 15.83 0 0 0 2.16-3.22 23.31 23.31 0 0 0 .42-3.81c.036-1.63-.105-3.26-.42-4.86l4.18-3.86v-8.64l-6.43-4.07 1-1.23a19.52 19.52 0 0 0 6.71-3.58 18.57 18.57 0 0 0 3.09-3.23v-6.53c-3.1-1.18-6.41-2.58-9.88-4.26-3.75-1.82-7.14-3.7-10.15-5.55-.22-1.09-.43-2.17-.65-3.26a66.113 66.113 0 0 0-4.5-3.55 70 70 0 0 0-9.32-5.67l-4.93.43c-2.92 3.17-6.16 6.47-9.75 9.8a176.96 176.96 0 0 1-12.85 10.88l-1-.43 2.47-6.86s.67-7.684.64-8.78c-.054-2.009-2.742-3.393-4.72-3.75-2.6-.469-29.89.75-29.89.75a9.54 9.54 0 0 0-.8.86 15.46 15.46 0 0 0-2.73 5.65c-.13.38-.3 1-.49 1.68l-1.2-.64a5.919 5.919 0 0 0-.6-1.85 6 6 0 0 0-2-2.17l-17.2-1.44a3.32 3.32 0 0 0-1.73 1.52 3.36 3.36 0 0 0-.36 1.53l-1.7-.16a5.532 5.532 0 0 0-.26-1 7 7 0 0 0-2-2.9h-56.65c-1.477-.165-2.959 2.268-3.21 4.18l-.22 29.78h-1a13.6 13.6 0 0 0-6.32 2.12c.087-2.28.133-4.63.14-7.05 0-4.09-.12-8-.36-11.7a7.92 7.92 0 0 0-.75-1 10.54 10.54 0 0 0-3.75-2.68c-2 .24-4.18.56-6.45 1-2.45.47-4.73 1-6.83 1.58l-.22-5.57-4.39-5-12.86-.65-1.07 1.18-1.71.22a5.249 5.249 0 0 0-.35-1.29 4.65 4.65 0 0 0-.62-1.07l-15.21.11a10.14 10.14 0 0 0-2 1.3c-.5.41-.957.873-1.36 1.38l.21 8.35-5.57-.1c-2.65 1.57-5.59 3.15-8.83 4.67a104 104 0 0 1-13.67 5.29c.14-.43.4-1.23.64-2.25.3-1.23.8-3.69.86-11.14v-2.68c.035-3.205-1.443-4.39-3.86-5.09l-53.13 1.13a8.83 8.83 0 0 0-6.15 3 6.69 6.69 0 0 0-.84 1.34z" class="cls-3" data-name="white_b" style="fill:#e4007f;fill-opacity:1;stroke:none;stroke-width:.999672;stroke-miterlimit:4;stroke-dasharray:none;stroke-opacity:1" transform="translate(29 29.5)"/></g></g><g id="Middle" style="stroke-width:.999672;stroke-miterlimit:4;stroke-dasharray:none" transform="matrix(.86025 -.05742 0 .9485 -17.032 -22.579)"><g id="g261" style="stroke-width:.999672;stroke-miterlimit:4;stroke-dasharray:none"><path id="white_a-2" d="M12 84.21s-1.445.687-1.861 1.232c-.417.545-.639 2.038-.639 2.038L9 99.43l3.75 4.18 16.4.64a20.11 20.11 0 0 1-.89 3.21c-1.36 3.71-3.59 6.35-6.51 9.08a97 97 0 0 1-16.59 12.09s-.793 2.145-.786 3.264c.006 1.068.786 3.106.786 3.106l7.5 5.89 3 1.39s3.516 1.077 5.329 1.084c1.885.007 5.551-1.084 5.551-1.084a47.26 47.26 0 0 0 8.84-4.87 49.279 49.279 0 0 0 4-3.16l1.4-.27 3 2.89 13.07 11s1.873.625 2.81.625 2.81-.625 2.81-.625c1.612-1.462 4.001-3.038 5.258-4.808C69.053 141.195 70.14 137 70.14 137v-4.77l4.45 1.72s1.276.89 3.289.774c2.26-.131 3.351-.664 3.351-.664a26.11 26.11 0 0 0 9.48-7.18 25.76 25.76 0 0 0 4.4-7.72l19 .06a29.82 29.82 0 0 1-5.39 12.29l.08 3.22c5.002 7.268 10.129 9.513 18.02 7.13l2.14-1.66 4 3c3.5.63 10.19 1.26 16.61-2a21.9 21.9 0 0 0 3.85-2.46 23 23 0 0 0 7.29-10.64v-12.81l-3.96-3.29-5.5-.08-1.33 1.89-2 .2.2-18c-3.603-6.092-10.064-3.804-16.51-3.4a19.985 19.985 0 0 0-3.53 4.46c.053 5.153.1 10.303.14 15.45l-1.33-.59-3.06-3.1-.11-6.48s-.646-1.442-1.235-1.854c-.588-.411-2.295-.616-2.295-.616H98.05v-5.75c-.385-.518-.5-1.129-.968-1.575-.749-.716-1.898-1.21-2.802-1.715l-11.36.31L82 88.9l-3-2.57A46.1 46.1 0 0 0 72.74 85a46.82 46.82 0 0 0-6.67-.4l-3.13 3.54a132.4 132.4 0 0 1-1.07 7.58A120.13 120.13 0 0 1 59.08 108c.21 1.68.43 3.37.64 5.06l3.65 2.25 9.56-.13v.91a24 24 0 0 1-1.69 2.67 23.09 23.09 0 0 1-2.81 3.22l-14.46-8.44a43.93 43.93 0 0 0 4.36-12.08A43.47 43.47 0 0 0 59 88.82s-.583-1.778-1.197-2.448c-.72-.787-2.743-1.652-2.743-1.652l-8.19-.51z" class="cls-3" data-name="white_a" style="fill:#fff;stroke:none;stroke-width:.999672;stroke-miterlimit:4;stroke-dasharray:none;stroke-opacity:1" transform="translate(29 29.5)"/><path id="white_b-2" d="M150.21 87.05v13.26a7.12 7.12 0 0 0 3.94 4.2c.285.104.58.178.88.22h13.9l-1.85 2.41a51.547 51.547 0 0 1-.29 7.5 59.12 59.12 0 0 1-1.5 7.82 71.71 71.71 0 0 1-4.24 11.92l-.37 4.75a19.83 19.83 0 0 0 7.69 4.82l9.51-.35A24.24 24.24 0 0 0 190 131.85a23.35 23.35 0 0 0 2-11.53l8.68-.8 3.7-2 3.43 3.45a17.53 17.53 0 0 0 9.37 2.74v16.6a7.19 7.19 0 0 0 1.34 2.2 7.27 7.27 0 0 0 1.77 1.45h14a4.59 4.59 0 0 0 4-3.59l.69-11.47.86.06a9.63 9.63 0 0 0 1.82 2.7 9.29 9.29 0 0 0 1.88 1.53l14.57-.22 1.39-1 .48 3.43a18.78 18.78 0 0 0 3.3 3.53 18.37 18.37 0 0 0 5.11 3l8.9-.21 2.89-1.82 2.25 3 13.93.11a19.46 19.46 0 0 0 9.11-6c.813 1.744.96 4.071 3.32 4.57l13.82-.11c2.364-.694 3.367-2.586 3.21-4.18v-3.1l17.9-.11a18.76 18.76 0 0 0 3.37 5.3A19.07 19.07 0 0 0 353 144h8.79a12.48 12.48 0 0 0 6.21-5.41 12.24 12.24 0 0 0 1.5-5.9l4.71 2.25 10.72-.1a11.16 11.16 0 0 0 3.57-2 10.94 10.94 0 0 0 2.11-2.45l6.64-1.08 1.29-.32V132a17.45 17.45 0 0 0 3.75 4.39 17.77 17.77 0 0 0 6.75 3.54l5.89-.22a19.86 19.86 0 0 0 4.91-3.4 20.33 20.33 0 0 0 4.09-5.38v-10.61l6-.21V129l4 2.25a17.32 17.32 0 0 0 5.79 12.7l29.25-2.52 1.61 2L477 143a16.07 16.07 0 0 0 3.63-3.11 15.83 15.83 0 0 0 2.16-3.22 23.31 23.31 0 0 0 .42-3.81c.036-1.63-.105-3.26-.42-4.86l4.18-3.86v-8.64l-6.43-4.07 1-1.23a19.52 19.52 0 0 0 6.71-3.58 18.57 18.57 0 0 0 3.09-3.23v-6.53c-3.1-1.18-6.41-2.58-9.88-4.26-3.75-1.82-7.14-3.7-10.15-5.55-.22-1.09-.43-2.17-.65-3.26a66.113 66.113 0 0 0-4.5-3.55 70 70 0 0 0-9.32-5.67l-4.93.43c-2.92 3.17-6.16 6.47-9.75 9.8a176.96 176.96 0 0 1-12.85 10.88l-1-.43 2.47-6.86s.67-7.684.64-8.78c-.054-2.009-2.742-3.393-4.72-3.75-2.6-.469-29.89.75-29.89.75a9.54 9.54 0 0 0-.8.86 15.46 15.46 0 0 0-2.73 5.65c-.13.38-.3 1-.49 1.68l-1.2-.64a5.919 5.919 0 0 0-.6-1.85 6 6 0 0 0-2-2.17l-17.2-1.44a3.32 3.32 0 0 0-1.73 1.52 3.36 3.36 0 0 0-.36 1.53l-1.7-.16a5.532 5.532 0 0 0-.26-1 7 7 0 0 0-2-2.9h-56.65c-1.477-.165-2.959 2.268-3.21 4.18l-.22 29.78h-1a13.6 13.6 0 0 0-6.32 2.12c.087-2.28.133-4.63.14-7.05 0-4.09-.12-8-.36-11.7a7.92 7.92 0 0 0-.75-1 10.54 10.54 0 0 0-3.75-2.68c-2 .24-4.18.56-6.45 1-2.45.47-4.73 1-6.83 1.58l-.22-5.57-4.39-5-12.86-.65-1.07 1.18-1.71.22a5.249 5.249 0 0 0-.35-1.29 4.65 4.65 0 0 0-.62-1.07l-15.21.11a10.14 10.14 0 0 0-2 1.3c-.5.41-.957.873-1.36 1.38l.21 8.35-5.57-.1c-2.65 1.57-5.59 3.15-8.83 4.67a104 104 0 0 1-13.67 5.29c.14-.43.4-1.23.64-2.25.3-1.23.8-3.69.86-11.14v-2.68c.035-3.205-1.443-4.39-3.86-5.09l-53.13 1.13a8.83 8.83 0 0 0-6.15 3 6.69 6.69 0 0 0-.84 1.34z" class="cls-3" data-name="white_b" style="fill:#fff;stroke:none;stroke-width:.999672;stroke-miterlimit:4;stroke-dasharray:none;stroke-opacity:1" transform="translate(29 29.5)"/></g><g id="b-purp" style="stroke-width:.999672;stroke-miterlimit:4;stroke-dasharray:none"><path id="path82" d="M14.64 89.46V98l21.54 1a45 45 0 0 1-5.75 15.35A46.36 46.36 0 0 1 10 132.32a24.74 24.74 0 0 0 5.57 3.53 25.48 25.48 0 0 0 3.17 1.15h4.9a54.63 54.63 0 0 0 24.86-24.82 52.77 52.77 0 0 0 5.12-21.68c-.53-.15-38.17-1.5-38.17-1.5Z" class="cls-4" style="stroke:none;stroke-width:.999672;stroke-miterlimit:4;stroke-dasharray:none" transform="translate(29 29.5)"/><path id="path84" d="M68.92 90a56 56 0 0 1-1.2 9.12 56.21 56.21 0 0 1-2.77 9l1.68 1.88h3.3a12.44 12.44 0 0 0 3.61-3.54 12 12 0 0 0 1.61-3.46v-3c1.233.068.95.833 1.05 1.91l6.38.16a39.2 39.2 0 0 1-1.88 9.24 39.87 39.87 0 0 1-8.24 14.06l4.22 3.54s.94.22 1.39.154c.448-.067 1.3-.554 1.3-.554a34 34 0 0 0 13.06-31.77l-16-.36a9.19 9.19 0 0 0 .34-4.44c-.06-.33-.14-.63-.22-.92z" class="cls-4" style="stroke:none;stroke-width:.999672;stroke-miterlimit:4;stroke-dasharray:none" transform="translate(29 29.5)"/><path id="rect86" d="M125.71 134.55h21.54v7.82h-21.54z" class="cls-4" style="stroke:none;stroke-width:.999672;stroke-miterlimit:4;stroke-dasharray:none"/><path id="path88" d="m133.79 98.46.69 17 .91 22 8.9-.53a15.57 15.57 0 0 0 10.07-10.61v-8.89c-1 .64-2.09 1.29-3.27 1.93a46.85 46.85 0 0 1-5.55 2.53l-2.85.08-.4-24.31-8.16.28z" class="cls-4" style="stroke:none;stroke-width:.999672;stroke-miterlimit:4;stroke-dasharray:none" transform="translate(29 29.5)"/><path id="path90" d="m155.11 88.82.21 10.18 36.59-.32a19.81 19.81 0 0 1 .48 3.13 21.78 21.78 0 0 1-2.25 11.12l2.84 1.39 5.09-.43a19.34 19.34 0 0 0 9.54-12.3l.27-14.49z" class="cls-4" style="stroke:none;stroke-width:.999672;stroke-miterlimit:4;stroke-dasharray:none" transform="translate(29 29.5)"/><path id="path92" d="M207.5 110a12 12 0 0 0 4.26 7.07 11.71 11.71 0 0 0 1.12.72 25.37 25.37 0 0 0 8.44-.88c.77-.22 1.49-.47 2.17-.73l-.48 21.3 9.72.48.48-7.79c.2-1.67.35-3.47.41-5.39a60 60 0 0 0-.41-9h-5.7l.32-1a34.45 34.45 0 0 0 13.62-7.16 31 31 0 0 1-2.37-5.06 29.86 29.86 0 0 1-1.2-4.26A103.57 103.57 0 0 1 224 105a103.74 103.74 0 0 1-16.5 5z" class="cls-4" style="stroke:none;stroke-width:.999672;stroke-miterlimit:4;stroke-dasharray:none" transform="translate(29 29.5)"/><path id="path94" d="M246.27 87.07h10l-.08 20.43a56.3 56.3 0 0 0 2.73-4c.92-1.48 1.72-2.89 2.41-4.22a36.76 36.76 0 0 1 5.54 3.33c.61.45 1.19.9 1.73 1.34a24.31 24.31 0 0 1 .2 3.12 24.67 24.67 0 0 1-.2 3.28 8.78 8.78 0 0 1-1.28 2.07 9.11 9.11 0 0 1-2.11 1.83 62.42 62.42 0 0 0-8.29-5.4l-.85.11v18.08h-10.28z" class="cls-4" style="stroke:none;stroke-width:.999672;stroke-miterlimit:4;stroke-dasharray:none" transform="translate(29 29.5)"/><path id="path96" d="M263 91.11a6 6 0 0 1 1.19-1.61 6.14 6.14 0 0 1 1.42-1 18.26 18.26 0 0 1 1.61 1.23c.46.4.88.8 1.24 1.18l1.41.2 1.16-2.25a3.51 3.51 0 0 1 1.69.24 3.09 3.09 0 0 1 1 .71 5.8 5.8 0 0 1 .92 1.5 5.7 5.7 0 0 1 .25.77 4.17 4.17 0 0 1-.19 1.07 4.43 4.43 0 0 1-.61 1.22l-.77.72a3.19 3.19 0 0 1-3.09-.24l-.52-2h-1.57a7.35 7.35 0 0 1-.24 1 6.51 6.51 0 0 1-.68 1.42 4.92 4.92 0 0 1-1.77.19 5.05 5.05 0 0 1-1-.19 12.32 12.32 0 0 1-1-2.1 13 13 0 0 1-.45-2.06z" class="cls-4" style="stroke:none;stroke-width:.999672;stroke-miterlimit:4;stroke-dasharray:none" transform="translate(29 29.5)"/><path id="path98" d="m284.38 99.11 1.6 38.78 8-.33a15.13 15.13 0 0 0 8.91-6.36A14.3 14.3 0 0 0 305 125l.1-7.27a23.42 23.42 0 0 1-10.23 4.13l-1.72.05c-.19-1.74-.35-3.53-.48-5.36a126.94 126.94 0 0 1 .16-18.91L285 98Z" class="cls-4" style="stroke:none;stroke-width:.999672;stroke-miterlimit:4;stroke-dasharray:none" transform="translate(29 29.5)"/><path id="path100" d="m311.75 83.25-.16 53.2h8.79l.38-45.95h29.78l1 41.07a1.2 1.2 0 0 1-.61.72 1.29 1.29 0 0 1-1.17 0l.89 2.7a9.25 9.25 0 0 0 1.8 1.84 10 10 0 0 0 1.61 1H359a8.91 8.91 0 0 0 5.11-5.59l-.57-49z" class="cls-4" style="stroke:none;stroke-width:.999672;stroke-miterlimit:4;stroke-dasharray:none" transform="translate(29 29.5)"/><path id="path102" d="M406.79 103.61v6.1l-10 .75v4.4h10v13a3.23 3.23 0 0 1-.81.82 3.19 3.19 0 0 1-1.77.56 16.09 16.09 0 0 0 2.84 3.23 15.54 15.54 0 0 0 1.88 1.39h4.71a14.7 14.7 0 0 0 2.47-2 15.22 15.22 0 0 0 1.82-2.2v-16l10.71.21v-5.35l-10.5.1-.32-6z" class="cls-4" style="stroke:none;stroke-width:.999672;stroke-miterlimit:4;stroke-dasharray:none" transform="translate(29 29.5)"/><path id="path104" d="M429.82 102.48a13.84 13.84 0 0 0 3.59 2.63 14.77 14.77 0 0 0 9.7 1.07A50.67 50.67 0 0 0 458.21 95l.69.31a53 53 0 0 0 13.58 9.18 45.58 45.58 0 0 0 4.66.16c1.43 0 2.77-.1 4-.23a11.56 11.56 0 0 0 4.82-4.28 71.44 71.44 0 0 1-22.39-10.82c.47-1 .93-2 1.39-3L455.48 80c-2.76 3-5.83 6.1-9.21 9.22a162.83 162.83 0 0 1-16.45 13.26z" class="cls-4" style="stroke:none;stroke-width:.999672;stroke-miterlimit:4;stroke-dasharray:none" transform="translate(29 29.5)"/><path id="polygon106" d="m473.23 142 25.18.27.32-7.34-24.8.75z" class="cls-4" style="stroke:none;stroke-width:.999672;stroke-miterlimit:4;stroke-dasharray:none"/><path id="path108" d="m439.41 132.62 2.57 5.14c6.06-.24 12.39-.7 18.95-1.43q3-.35 6-.74c.32-1.23.65-2.46 1-3.7v-.72l-4.34.14c-8.56.27-12 .36-18.64.58l-4.83.16z" class="cls-4" style="stroke:none;stroke-width:.999672;stroke-miterlimit:4;stroke-dasharray:none" transform="translate(29 29.5)"/><path id="path110" d="M465.17 128c1.37 1.49 2.77 3.07 4.17 4.74 1.4 1.67 2.76 3.32 4 4.94l2.29-2.41a6.6 6.6 0 0 0 0-5.67c-.35-.66-.76-1.36-1.24-2.09a24.52 24.52 0 0 0-2.66-3.33c-.73.52-1.52 1-2.37 1.57a41 41 0 0 1-4.19 2.25z" class="cls-4" style="stroke:none;stroke-width:.999672;stroke-miterlimit:4;stroke-dasharray:none" transform="translate(29 29.5)"/><path id="path112" d="m326.54 110.52.42 17.19h18.22v-17.19zm11.57 13.93H331V117h7.07z" class="cls-4" style="stroke:none;stroke-width:.999672;stroke-miterlimit:4;stroke-dasharray:none" transform="translate(29 29.5)"/><path id="path114" d="M390.82 114.64a56.39 56.39 0 0 0 2.63-9.91 57.13 57.13 0 0 0 .8-9.48l-9.59-.59a33.71 33.71 0 0 0 1.18-6.48c.07-.82.1-1.61.11-2.36l-11.63-1.77a37 37 0 0 1-1.12 9.49l-3.91-.22-.86 4.07 3.86.65a76 76 0 0 1-3.16 18.1 41.09 41.09 0 0 0 6.85 2.15c1 .22 2 .4 2.95.53a21 21 0 0 1-2 4.66 20.4 20.4 0 0 1-2.74 3.7l-.1 1.07 9.37.91a20.55 20.55 0 0 0 2.84-3.37 21.52 21.52 0 0 0 1.61-2.84l.86-.32a10 10 0 0 1 2.14.53 9.81 9.81 0 0 1 2.41 1.29 8.33 8.33 0 0 0 1.29-5.41 11.77 11.77 0 0 0-1.34-2.09 12.06 12.06 0 0 0-2.45-2.31zm-3.08-9.39a64.76 64.76 0 0 1-2 7.52l-5.57-1.18a39.3 39.3 0 0 0 2.32-8.71c.19-1.31.3-2.55.36-3.72h5.84c-.21 1.84-.51 3.93-.95 6.09z" class="cls-4" style="stroke:none;stroke-width:.999672;stroke-miterlimit:4;stroke-dasharray:none" transform="translate(29 29.5)"/></g><g id="b-orange" style="stroke-width:.999672;stroke-miterlimit:4;stroke-dasharray:none"><path id="path117" d="m45.39 129.48 7.13-10 10.34 6.33a5.6 5.6 0 0 1 1.2 3.13q-.15 3.62-.32 7.23a22.76 22.76 0 0 1-1.36 2.33 21.39 21.39 0 0 1-2.82 3.38q-3.18-3.06-6.77-6.22-3.79-3.32-7.4-6.18z" class="cls-5" style="stroke:none;stroke-width:.999672;stroke-miterlimit:4;stroke-dasharray:none" transform="translate(29 29.5)"/><path id="path119" d="M122 115.42a38.32 38.32 0 0 1-7 16.63v1.37l5 2.65h5.22a24.12 24.12 0 0 0 4.77-6.48 24.75 24.75 0 0 0 2.15-6.21z" class="cls-5" style="stroke:none;stroke-width:.999672;stroke-miterlimit:4;stroke-dasharray:none" transform="translate(29 29.5)"/><path id="path121" d="M173 109.26a71.56 71.56 0 0 1-5.87 26.41l1.41 1.57 7.83-.12a4.42 4.42 0 0 0 1.77-.41 4.48 4.48 0 0 0 1.37-1 30.91 30.91 0 0 0 7.23-17 29.29 29.29 0 0 0-.32-7.39z" class="cls-5" style="stroke:none;stroke-width:.999672;stroke-miterlimit:4;stroke-dasharray:none" transform="translate(29 29.5)"/><path id="path123" d="M272.51 115.42a76.45 76.45 0 0 1-3 9.16 75.44 75.44 0 0 1-3.58 7.63v1.29l4.1 2.57h5a19.26 19.26 0 0 0 5.26-7 18.89 18.89 0 0 0 1.49-5.66 40.88 40.88 0 0 0-3-3.11 43.44 43.44 0 0 0-6.27-4.88z" class="cls-5" style="stroke:none;stroke-width:.999672;stroke-miterlimit:4;stroke-dasharray:none" transform="translate(29 29.5)"/><path id="path125" d="m399.55 82.5-.75 7.66 13 .75a21 21 0 0 1 .27 3.38 20.55 20.55 0 0 1-.91 5.84l5.94-.59a19.24 19.24 0 0 0 5.2-5.09 19.45 19.45 0 0 0 2.36-4.72l.58-8.41z" class="cls-5" style="stroke:none;stroke-width:.999672;stroke-miterlimit:4;stroke-dasharray:none" transform="translate(29 29.5)"/><path id="path127" d="m436.28 119.44-1 5.62 11.25-.48c-.12.71-.25 1.43-.4 2.17-.18.91-.37 1.79-.56 2.65h7.55a12.5 12.5 0 0 0 4.18-3.53 12.63 12.63 0 0 0 1.69-3.06 98.24 98.24 0 0 0 16.47-.32c1.72-.18 3.38-.39 5-.64v-4.26l-37.68 1z" class="cls-5" style="stroke:none;stroke-width:.999672;stroke-miterlimit:4;stroke-dasharray:none" transform="translate(29 29.5)"/><path id="polygon129" d="m374.63 128.66-20.59 1.29-.27 4.39 21.18-1.39z" class="cls-5" style="stroke:none;stroke-width:.999672;stroke-miterlimit:4;stroke-dasharray:none"/></g></g><g id="Top" transform="matrix(.83295 -.03596 .01755 .83762 336.925 -124.453)"><path id="path23397" d="M-249.5 154.47s2.189-3.411 3.914-3.39c4.67.056 13.951 5.208 16.931 7.377.753 2.702-.325 4.183-1.782 6.252l1.605.758s2.157-4.304 4.135-5.425c1.34-.758 3.083-.83 4.589-.512 2.197.465 5.819 3.397 5.819 3.397s3.908-4.057 6.478-4.923c1.4-.472 3.034-.479 4.431 0 2.025.694 5.071 3.938 5.071 3.938s2.223-3.228 3.939-3.938c1.346-.558 2.96-.366 4.371 0 3.858 1.002 10.447 5.819 10.447 5.819v-5.82c.977-2.056 1.758-2.082 3.939-2.51l26.85-.266 26.59-.353c2.512.616 3.845 5.01 3.845 5.01v53.933s-.354 2.762-.966 3.278c-.612.515-2.707.675-2.707.675h-53.169c-3.752-.085-5.12-.473-5.593-4.43l-1.477.423-10.654.069s-1.124 2.738-1.969 3.938c-1.347 1.913-2.702 4.152-4.854 5.071-2.985 1.275-6.614.882-9.738 0-2.264-.64-4.396-1.985-6.016-3.692-1.267-1.336-2.639-4.854-2.639-4.854l-10.752-1.054-2.855-3.8-1.26 1.683-9.079-.098-6.43-4.746-3.711 2.954-4.923 2.441h-5.691s-4.776-.399-6.332-1.969c-.8-.808-1.048-2.132-.984-3.269.105-1.871 2.215-5.169 2.215-5.169l2.53-3.16-1.969-1.743-1.673-2.363h-3.939v6.892s-1.834 2.707-3.269 3.269c-.786.308-2.53-.099-2.53-.099s-.174 3.54-.896 5.11c-.81 1.761-3.693 4.49-3.693 4.49s-2.024 2.454-3.397 3.17c-1.19.623-2.601.719-3.938.848-1.836.177-5.534-.109-5.534-.109-4.37-2.856-4.697-3.73-8.723-.206 0 0-21.975.7-33.605.108-1.08-.055-2.087-.879-2.738-1.743-1.125-1.495-1.585-5.386-1.585-5.386-.555-.735-1.435-.506-2.304-.551l-7.877 3.367c-4.21 1.676-8.32 3.543-12.721 4.628 0 0-2.797-.222-3.88-1.004-1.68-1.215-3.367-5.229-3.367-5.229l-2.59-7.64s-.125-2.894.581-4.067c.785-1.304 3.693-2.688 3.693-2.688l4.381-.207-.059-1.427c-1.648-.74-2.418-1.94-3.426-3.358l.043-21.547s-.129-2.45.959-3.772c1.24-1.51 2.936-1.266 2.936-1.266h9.02v-8.172c.883-2.366 1.918-3.834 4.184-4.628l9.757.109c1.63.018 3.482 1.748 3.535 3.377l.266 8.143.581.738 31.734.364 1.9.985.897 1.32 1.073 1.703-.158 10.073a9.62 9.62 0 0 1-1.27 1.9 9.767 9.767 0 0 1-1.841 1.684l-5.435.128v11.815l4.588-.108 3.486-10.034a8.546 8.546 0 0 1 2.954-3.377s2.856-.564 4.273-.374c1.762.237 5.002 1.851 5.002 1.851l2.383 1.418v-18.137c0-1.718 1.812-3.732 3.524-3.732h19.782l.482-3.75.788-1.901c1.64-2.67 3.642-3.958 6.06-4.92 2.214-.85 8.768.006 9.438 2.409z" class="cls-6" style="fill:#e4007f;fill-opacity:1;stroke:none;stroke-width:.98462;stroke-opacity:1;filter:url(#filter54848)" transform="matrix(.99784 -.00117 -.00058 1.02513 -.616 -6.062)"/><path id="Orange" d="M-251.848 151.98s2.188-3.41 3.914-3.389c4.67.056 13.95 5.208 16.93 7.377.754 2.702-.325 4.184-1.782 6.253l1.605.758s2.157-4.305 4.136-5.425c1.339-.759 3.082-.831 4.588-.512 2.197.465 5.819 3.396 5.819 3.396s3.908-4.057 6.479-4.923c1.4-.471 3.033-.479 4.43 0 2.025.694 5.071 3.939 5.071 3.939s2.224-3.228 3.939-3.939c1.346-.557 2.961-.366 4.372 0 3.858 1.002 10.446 5.82 10.446 5.82v-5.82c.977-2.056 1.759-2.082 3.939-2.51l26.85-.266 26.59-.353c2.513.615 3.845 5.01 3.845 5.01v53.933s-.354 2.762-.966 3.277c-.612.516-2.707.676-2.707.676h-53.169c-3.752-.085-5.12-.474-5.593-4.431l-1.477.423-10.653.07s-1.124 2.738-1.97 3.938c-1.347 1.913-2.702 4.152-4.854 5.07-2.985 1.275-6.614.883-9.738 0-2.264-.639-4.396-1.985-6.016-3.692-1.267-1.336-2.638-4.854-2.638-4.854l-10.752-1.053-2.856-3.801-1.26 1.684-9.078-.099-6.43-4.746-3.712 2.954-4.923 2.442h-5.691s-4.775-.4-6.331-1.97c-.801-.808-1.049-2.132-.985-3.268.105-1.872 2.216-5.17 2.216-5.17l2.53-3.16-1.97-1.743-1.673-2.363h-3.939v6.892s-1.834 2.707-3.268 3.27c-.786.307-2.53-.1-2.53-.1s-.175 3.54-.897 5.111c-.81 1.76-3.692 4.49-3.692 4.49s-2.024 2.453-3.397 3.17c-1.19.622-2.602.718-3.939.847-1.836.177-5.533-.108-5.533-.108-4.37-2.857-4.698-3.73-8.724-.207 0 0-21.975.7-33.605.108-1.08-.055-2.087-.878-2.737-1.742-1.126-1.496-1.586-5.386-1.586-5.386-.555-.736-1.434-.507-2.304-.552l-7.877 3.368c-4.21 1.675-8.32 3.543-12.72 4.627 0 0-2.798-.221-3.88-1.004-1.68-1.214-3.368-5.228-3.368-5.228l-2.59-7.64s-.124-2.894.582-4.067c.785-1.305 3.692-2.688 3.692-2.688l4.382-.207-.06-1.428c-1.647-.739-2.417-1.939-3.426-3.357l.044-21.547s-.13-2.45.958-3.773c1.24-1.51 2.936-1.265 2.936-1.265h9.02v-8.173c.884-2.366 1.918-3.834 4.184-4.627l9.758.108c1.63.018 3.481 1.749 3.535 3.377l.265 8.143.581.739 31.735.364 1.9.985.896 1.319 1.073 1.703-.157 10.073a9.62 9.62 0 0 1-1.27 1.9 9.767 9.767 0 0 1-1.842 1.684l-5.435.128v11.815l4.589-.108 3.485-10.033a8.546 8.546 0 0 1 2.954-3.377s2.856-.565 4.273-.375c1.762.237 5.002 1.852 5.002 1.852l2.383 1.417v-18.136c0-1.718 1.812-3.732 3.525-3.732h19.78l.483-3.751.788-1.9c1.641-2.67 3.643-3.959 6.06-4.92 2.215-.85 8.768.006 9.438 2.408z" class="cls-6" style="fill:#fff;stroke:none;stroke-width:.98462;stroke-opacity:1"/><g id="OrSub" style="fill:none" transform="translate(-415.128 114.358) scale(.98462)"><path id="path137" d="M80.77 55.34a36.45 36.45 0 0 0 3.91-7.13 35.59 35.59 0 0 0 2-6.48l6 1.66v5.68h14.78v4.61l-5.35.21c0 .64.08 1.57.07 2.71a13.15 13.15 0 0 1-.12 2.21 8.6 8.6 0 0 1-1.16 2.93 57.55 57.55 0 0 1-3.51 5.33h-7.5a15.12 15.12 0 0 0 4.07-7.18 14.79 14.79 0 0 0 .19-6l-3.94-.1-3.85 3.85-5.52-1.18z" class="cls-7" style="fill:#000;stroke:none" transform="translate(29 29.5)"/><path id="path139" d="M47.75 46A38.28 38.28 0 0 1 44 47.68 40.92 40.92 0 0 1 40 49v2.09l1 .08-.16 2.17H38v-9.12l8-.08V25h-7V13h-6.14v13h-13v19h12l.14 9.8c-2.88.58-5.91 1.1-9.11 1.56-3.2.46-6.1.77-8.95 1q2.34 4.84 4.66 9.69A120.33 120.33 0 0 0 33.88 62c2.45-1 4.77-2 7-3.1v-3.7h1.53A11.48 11.48 0 0 1 45 61a14.43 14.43 0 0 0 3-2.31 15.07 15.07 0 0 0 1.89-2.41 14.41 14.41 0 0 0 .19-2.28 15.06 15.06 0 0 0-.64-4.66ZM39 30h3v11.89h-3zm-6 12.08h-4v-13h4z" class="cls-7" style="fill:#000;stroke:none" transform="translate(29 29.5)"/><path id="path141" d="M50.43 25v6.86H58v27.07l-9 .27-1 7.87 30.91-1V55l-10.88-.1.08-22.9 7.93.11-.11-7.11Z" class="cls-7" style="fill:#000;stroke:none" transform="translate(29 29.5)"/><path id="path143" d="M126.29 26.79v8l7.6.4-1.2 6.91h-8.6v6.3h6a48.07 48.07 0 0 1-2.26 4.6 47.28 47.28 0 0 1-5.67 7.92H129a17.62 17.62 0 0 0 8.28-12.3 64.24 64.24 0 0 0 4.88 7.82q1.56 2.16 3.11 4a15 15 0 0 0 2.21.37 11.56 11.56 0 0 0 3 0 9.84 9.84 0 0 0 3-1c-.37-.28-5.13-4.32-6.48-5.68a19.64 19.64 0 0 1-4.07-5.3 16.64 16.64 0 0 1-.94-2.28h11.11l-.89-4.74-12.8-.51 1-5.35h10.21l-.08-9.08z" class="cls-7" style="fill:#000;stroke:none" transform="translate(29 29.5)"/><path id="path145" d="m125.54 15.75 5-4.61 4.46 4.61a8.87 8.87 0 0 1-.26 3.2 9.15 9.15 0 0 1-2 3.66 22.77 22.77 0 0 0-3.6-4.18 23.48 23.48 0 0 0-3.6-2.68z" class="cls-7" style="fill:#000;stroke:none" transform="translate(29 29.5)"/><path id="path147" d="M142.68 10.29c-.39 1.39-.86 2.87-1.43 4.4a55.27 55.27 0 0 1-3.42 7.38l7.74.54a11.49 11.49 0 0 0 6.54-7.61Z" class="cls-7" style="fill:#000;stroke:none" transform="translate(29 29.5)"/><path id="path151" d="m157.44 34.42-.56 14.22a2.68 2.68 0 0 0 .52.18c3.26.75 6.85-4.19 7.59-5.24v-4.34l.89-.16 1.28 1.53 28.66-.16a7.14 7.14 0 0 1 .18 2.25 7.4 7.4 0 0 1-.94 3l6.92-.08a18.64 18.64 0 0 0 3.56-2.92 18.07 18.07 0 0 0 2.46-3.22V35l-42.27.81.08-1.37z" class="cls-7" style="fill:#000;stroke:none" transform="translate(29 29.5)"/><path id="path153" d="m171 46.11-1.09 6.51 13.09-.39a1.68 1.68 0 0 1 .65 1 1.7 1.7 0 0 1-.65 1.64h8.14a8.31 8.31 0 0 0 1.8-1.92 7.91 7.91 0 0 0 1.09-2.46v-3.72z" class="cls-7" style="fill:#000;stroke:none" transform="translate(29 29.5)"/><path id="path155" d="M177.93 57.12v2.05h-16.15l-.4 4.58 16.55.24v4.06h-2.35l.22 2c.5.35 1 .73 1.55 1.16.79.65 1.49 1.29 2.11 1.91h5.18a10.3 10.3 0 0 0 2.53-2 10.63 10.63 0 0 0 1.45-2V64l14.43-.09-.21-5.9-14.79-.01v-1z" class="cls-7" style="fill:#000;stroke:none" transform="translate(29 29.5)"/><path id="path157" d="m160 26.79 5.14-7.18 7.86 5.68a10.73 10.73 0 0 1-2 8.46q-1.35-1-2.79-2c-2.83-1.88-5.55-3.53-8.21-4.96z" class="cls-7" style="fill:#000;stroke:none" transform="translate(29 29.5)"/><path id="path159" d="M174.23 22.65c1-.94 2.13-1.91 3.38-2.9s2.49-1.87 3.65-2.65a14.32 14.32 0 0 1 2.9 2.53 14.58 14.58 0 0 1 1.7 2.44 15.45 15.45 0 0 1 .14 3.39 15.14 15.14 0 0 1-.68 3.68 10.43 10.43 0 0 1-1.53 1.5 10.59 10.59 0 0 1-1.79 1.18 29.21 29.21 0 0 0-7.74-9.17z" class="cls-7" style="fill:#000;stroke:none" transform="translate(29 29.5)"/><path id="path161" d="M194.75 18.21a63.68 63.68 0 0 1-2.25 5.25 64.08 64.08 0 0 1-4.66 8.09 39 39 0 0 0 4.55.43 38.13 38.13 0 0 0 5.15-.16 19.27 19.27 0 0 0 7-9.21z" class="cls-7" style="fill:#000;stroke:none" transform="translate(29 29.5)"/><path id="path163" d="m291.533 45.873-49.014.513.513 49.645h49.228zm-10.177 45.69h-30.705v-40.64l30.666-.418z" class="cls-7" style="fill:#000;stroke:none"/><path id="path165" d="M261.942 53.83v3.877h-6.445l.261 4.846h6.436v3.877h-7.667v2.656l22.167.252V66.43l-8.597-.087-.078-3.664 8.22-.077V56.64h-7.24l.067-2.811z" class="cls-7" style="fill:#000;stroke:none"/><path id="path167" d="m268.155 84.157 3.024-2.646a5.389 5.389 2.538 0 0 1.202.97 5.253 5.253 2.67 0 0 1.58.581l1.444-1.938 2.384 1.182-2.016 2.375c.272.174.562.34.873.504a11.63 11.63 2.18 0 0 2.18.862 3.877 3.877 2.452 0 1-1.143 2.026 3.76 3.76 2.605 0 1-1.348.776l-1.715-.126-1.396-.126a24.92 24.92 2.532 0 1-2.762-2.104 25.81 25.81 2.36 0 1-2.307-2.336z" class="cls-7" style="fill:#000;stroke:none"/><path id="path171" d="M102.13 22.07v21.75h20V22.29Zm15.48 18h-5.2V27.54h5.2z" class="cls-7" style="fill:#000;stroke:none" transform="translate(29 29.5)"/><path id="path173" d="M256.466 72.488v7.366l5.883.155v.853a59.798 59.798 0 0 1-5.02 2.375q-2.443.969-4.643 1.715a3.974 3.974 2.334 0 0 1.047 1.832 3.741 3.741 2.632 0 0 1.444.892 5.127 5.127 2.802 0 0 1.473 0 5.815 5.815 2.18 0 0 1.939-.553 7.201 7.201 2.84 0 0 1.86-1.192 7.298 7.298 2.766 0 0 1.154-1.299h.717v4.847h5.05v-9.014l7.424-.533v-7.444zm14.461 5.37h-6.649v-3.432h6.649z" class="cls-7" style="fill:#000;stroke:none"/></g></g></svg>